<?xml version="1.0" encoding="iso-8859-1"?>
<!-- Generator: Adobe Illustrator 19.0.0, SVG Export Plug-In . SVG Version: 6.00 Build 0)  -->
<svg version="1.1" id="Capa_1" xmlns="http://www.w3.org/2000/svg" xmlns:xlink="http://www.w3.org/1999/xlink" x="0px" y="0px"
	 viewBox="-27.333 185.75 467.583 422.583" style="enable-background:new -27.333 185.75 467.583 422.583;" xml:space="preserve">
<g>
	<rect x="149.4" y="492.36" style="fill:#FFFFFF;" width="57.199" height="106.56"/>
	<path style="fill:#F4654C;" d="M265.4,598.92V491.56H148.6v107.36H93.4V362.593l113.28-63.775l113.28,63.775V598.92H265.4z
		 M207,339.72c-14.292,0-25.92,11.628-25.92,25.92c0,14.293,11.628,25.921,25.92,25.921c14.292,0,25.92-11.628,25.92-25.921
		C232.876,351.392,221.249,339.764,207,339.72L207,339.72z"/>
	<rect x="207.4" y="492.36" style="fill:#FFFFFF;" width="57.199" height="106.56"/>
	<path style="fill:#FFFFFF;" d="M207,390.84c-13.851,0-25.12-11.269-25.12-25.12c0-13.851,11.269-25.119,25.12-25.119
		c13.851,0,25.119,11.268,25.119,25.119C232.119,379.571,220.851,390.84,207,390.84z"/>
	<rect x="207.4" y="212.84" style="fill:#FEA400;" width="64.56" height="41.199"/>
	<rect x="243.881" y="232.28" style="fill:#FEA400;" width="62.959" height="41.199"/>
	<path style="fill:#444444;" d="M-17,606.92c-4.19,0-7.6-3.409-7.6-7.6V390.04c0-4.19,3.409-7.6,7.6-7.6H85.72v-20.161
		c0.004-2.736,1.49-5.269,3.876-6.611L199.4,294.034V194.68c0-4.19,3.409-7.6,7.6-7.6s7.6,3.409,7.6,7.6v10.16h57.761
		c4.19,0,7.6,3.409,7.6,7.6v12.001h30.16c0.882,0,1.75,0.152,2.58,0.452c1.909,0.691,3.436,2.083,4.298,3.921
		c0.861,1.837,0.956,3.901,0.265,5.81l-6.688,18.375l6.608,18.774c0.301,0.833,0.453,1.702,0.453,2.584
		c0.001,2.027-0.789,3.935-2.226,5.372s-3.344,2.229-5.37,2.23h-65.36c-4.19,0-7.6-3.409-7.6-7.6v-12.32H214.6v31.995
		l109.805,61.714c2.386,1.341,3.87,3.875,3.875,6.612v20.16H431c4.19,0,7.6,3.409,7.6,7.6v209.2c0,4.19-3.409,7.6-7.6,7.6H-17z
		 M328.279,591.721H423.4V397.72h-95.121V591.721z M265,484.36c4.19,0,7.6,3.409,7.6,7.6v99.761H313.4V390.04l-0.324-23.276
		L207,307.181l-106.4,59.905v224.635H141.4V491.96c0-4.19,3.409-7.6,7.6-7.6H265z M214.6,591.721H257.4V499.56H214.6V591.721z
		 M156.6,591.721H199.4V499.56H156.6V591.721z M-9.4,591.721H85.72V397.72H-9.4V591.721z M252.279,266.76h47.053l-3.957-10.778
		c-0.621-1.691-0.621-3.553,0-5.244l3.454-10.779H279.64v14.327l0.319,0.318c-0.089,4.107-3.479,7.435-7.599,7.435h-20.081V266.76z
		 M214.6,246.84h50.161v-26.801H214.6V246.84z"/>
	<path style="fill:#444444;" d="M206.999,398.76c-18.218,0-33.075-14.822-33.119-33.041c0-18.263,14.858-33.156,33.121-33.199
		c18.219,0,33.075,14.822,33.118,33.041c0.021,8.847-3.403,17.172-9.644,23.442c-6.241,6.27-14.55,9.735-23.396,9.756H206.999z
		 M206.998,347.72c-9.791,0.044-17.793,8.046-17.838,17.838c-0.021,4.787,1.822,9.295,5.191,12.695
		c3.37,3.4,7.861,5.285,12.647,5.307c9.882,0,17.957-8.002,18.002-17.838l0.002-0.402h-0.087c-0.214-9.679-8.208-17.556-17.913-17.6
		H206.998z"/>
	<rect x="125.72" y="416.12" style="fill:#FFFFFF;" width="31.199" height="15.199"/>
	<rect x="191.4" y="416.12" style="fill:#FFFFFF;" width="31.199" height="15.199"/>
	<rect x="257.08" y="416.12" style="fill:#FFFFFF;" width="31.199" height="15.199"/>
	<rect x="125.72" y="453.4" style="fill:#FFFFFF;" width="31.199" height="15.199"/>
	<rect x="191.4" y="453.4" style="fill:#FFFFFF;" width="31.199" height="15.199"/>
	<rect x="257.08" y="453.4" style="fill:#FFFFFF;" width="31.199" height="15.199"/>
	<rect x="6.027" y="461.08" style="fill:#444444;" width="64.266" height="15.199"/>
	<rect x="6.027" y="507.64" style="fill:#444444;" width="64.266" height="15.199"/>
	<rect x="343.707" y="461.08" style="fill:#444444;" width="64.266" height="15.199"/>
	<rect x="343.707" y="507.64" style="fill:#444444;" width="64.266" height="15.199"/>
</g>
</svg>
