<svg id="Layer_1" data-name="Layer 1" xmlns="http://www.w3.org/2000/svg" viewBox="0 0 32.17 32.31"><path d="M32.17,25.46H9.3a4.43,4.43,0,0,1-4.21-3V20.84l24.74-1.36L32,4H5.09V0H0V.91H4.17V22.5l0,.13a5.45,5.45,0,0,0,4.9,3.72,3.19,3.19,0,1,0,3.21,0H23.68a3.21,3.21,0,1,0,3.25,0h5.24ZM30.92,4.87,29,18.61,5.09,19.93V4.87ZM27.6,29.11a2.29,2.29,0,1,1-2.29-2.29h0A2.31,2.31,0,0,1,27.6,29.11ZM13,29.11a2.29,2.29,0,1,1-2.29-2.29h0A2.3,2.3,0,0,1,13,29.11Z" style="fill:#011638"/><g id="Path_2506" data-name="Path 2506"><rect x="7.49" y="17.5" width="18.03" height="1" transform="translate(-0.96 0.93) rotate(-3.14)" style="fill:#4285f4"/></g></svg>