<svg id="Layer_1" data-name="Layer 1" xmlns="http://www.w3.org/2000/svg" viewBox="0 0 36.1 33.5"><path d="M34.35,0H1.75A1.76,1.76,0,0,0,0,1.75V25.57a1.75,1.75,0,0,0,1.75,1.75H13.67v1.84a2.59,2.59,0,0,0-2.55,2.58V32.9a.59.59,0,0,0,.17.42.6.6,0,0,0,.43.18H24.38a.6.6,0,0,0,.6-.6V31.74a2.59,2.59,0,0,0-2.55-2.58V27.32H34.35a1.75,1.75,0,0,0,1.75-1.75V1.75A1.76,1.76,0,0,0,34.35,0ZM14.86,29.16V27.32h6.37v1.84Zm-2.55,2.58a1.4,1.4,0,0,1,1.4-1.39h8.68a1.41,1.41,0,0,1,1.4,1.39v.57H12.31Zm22.6-10.9v4.73a.56.56,0,0,1-.56.56H1.75a.56.56,0,0,1-.56-.53V20.84Zm0-19.09v17.9H1.19V1.75a.56.56,0,0,1,.56-.56h32.6A.56.56,0,0,1,34.91,1.75Z" style="fill:#011638"/><path d="M18.05,25.34h0a1.89,1.89,0,0,0,1.89-1.9,1.89,1.89,0,0,0-1.89-1.89h0a1.9,1.9,0,0,0,0,3.79Zm.05-2.6h0a.63.63,0,0,1,.44.21.65.65,0,0,1,.21.49.7.7,0,0,1-.7.7h0a.7.7,0,0,1-.49-.2.73.73,0,0,1-.21-.5.78.78,0,0,1,.21-.5.7.7,0,0,1,.49-.2h.06Z" style="fill:#011638"/><path id="Path_2533" data-name="Path 2533" d="M13,13.34a.53.53,0,0,0,.77,0,.55.55,0,0,0,0-.74L11.3,10.14l2.43-2.42A.55.55,0,0,0,13,6.94L10.14,9.76a.55.55,0,0,0,0,.77h0Z" style="fill:#4285f4;stroke:#4285f4;stroke-width:0.20000000298023224px"/><path id="Path_2534" data-name="Path 2534" d="M22.37,13.34a.53.53,0,0,0,.77,0h0L26,10.53a.55.55,0,0,0,0-.77h0L23.14,6.94a.55.55,0,0,0-.77,0,.56.56,0,0,0,0,.75l2.43,2.42-2.43,2.43a.55.55,0,0,0,0,.77Z" style="fill:#4285f4;stroke:#4285f4;stroke-width:0.20000000298023224px"/><path id="Path_2535" data-name="Path 2535" d="M15.28,15.77a.55.55,0,0,0,.73-.25L21.07,5.25a.55.55,0,0,0-1-.51v0L15,15A.56.56,0,0,0,15.28,15.77Z" style="fill:#4285f4;stroke:#4285f4;stroke-width:0.20000000298023224px"/></svg>