<svg id="Layer_1" data-name="Layer 1" xmlns="http://www.w3.org/2000/svg" viewBox="0 0 28.11 36.19"><path d="M27.84,4.49v0A6.12,6.12,0,0,0,24.34.37c-2.93-1.13-6.15.69-6.18.71A8.89,8.89,0,0,1,10,1.15c-5.24-2.75-8,.28-8.08.42-3.89,4.88-1,11.25.47,13.75A2.66,2.66,0,0,1,2.73,17C.92,28.84,7.5,35.48,7.78,35.76a1.41,1.41,0,0,0,.94.4c1.12,0,1.42-1.51,1.45-1.69a14.37,14.37,0,0,0-.08-3.53L10,30.12c-.24-2.58-.41-8.62,3.19-9a4.15,4.15,0,0,1,1.45,0c3.43.61,3.46,5.93,3.18,9l-.09.82a14.22,14.22,0,0,0-.07,3.57c.06.31.32,1.34,1.09,1.6a1.31,1.31,0,0,0,1.31-.36c.28-.28,7-6.84,5.26-18.64a2.69,2.69,0,0,1,.39-1.79A14.6,14.6,0,0,0,27.84,4.49ZM24.05,17.33c1.63,10.88-4.6,17.25-4.87,17.51l0,0a1.36,1.36,0,0,1-.22-.53A13.42,13.42,0,0,1,19,31.12l.09-.84c.33-3.55.22-9.63-4.21-10.42a5.05,5.05,0,0,0-1-.11,7.37,7.37,0,0,0-.82.05c-4.73.57-4.59,7.5-4.31,10.45q0,.41.09.84a13.63,13.63,0,0,1,.08,3.19,1.76,1.76,0,0,1-.21.58l0,0C8.59,34.77,2.29,28.37,4,17.2a3.82,3.82,0,0,0-.47-2.5c-1.3-2.28-4-8-.6-12.3a3.66,3.66,0,0,1,1.62-.92,6.42,6.42,0,0,1,4.86.8,10.16,10.16,0,0,0,9.35-.06c.12-.06,2.83-1.53,5.13-.64A4.8,4.8,0,0,1,26.6,4.83a13.57,13.57,0,0,1-2,9.85h0A4,4,0,0,0,24.05,17.33Z" style="fill:#011638"/><path d="M7,11.09a5,5,0,0,1-.65-5.9.61.61,0,0,0,.09-.49.65.65,0,0,0-1.16-.22A6.41,6.41,0,0,0,6,11.9a.66.66,0,0,0,.43.23h.08A.58.58,0,0,0,6.94,12a.61.61,0,0,0,.24-.43A.63.63,0,0,0,7,11.09Z" style="fill:#4285f4"/></svg>