<svg id="Layer_1" data-name="Layer 1" xmlns="http://www.w3.org/2000/svg" viewBox="0 0 35.76 36.2"><g id="Group_10831" data-name="Group 10831"><g id="Group_10830" data-name="Group 10830"><path d="M19,20H35.76V0H16.2V17.24a2.47,2.47,0,0,0-.63.26,0,0,0,0,0,0,0L6.14,8.06l1-1L4.38,4.32,1.63,7.07,4.38,9.82l1-1,9.41,9.42h0A2.29,2.29,0,0,0,18,21.42l9.43,9.44-1,1,2.75,2.75,2.75-2.75-2.75-2.75-1,1-9.43-9.43A2,2,0,0,0,19,20ZM17.33,1.12H34.64v17.8H19a2.28,2.28,0,0,0-.6-1.08,2.22,2.22,0,0,0-1.06-.6ZM28,31.84l1.15-1.16,1.16,1.16L29.14,33ZM5.54,7.07,4.38,8.23,3.22,7.07,4.38,5.91ZM15.79,20.43h0a1.38,1.38,0,1,1,1.95,0A1.38,1.38,0,0,1,15.79,20.43Z" style="fill:#011638"/><path d="M14.21,21.71a.54.54,0,0,0-.43,0L.37,26.63a.54.54,0,0,0-.31.28.53.53,0,0,0,0,.43.59.59,0,0,0,.28.32l5.51,2.72,2.72,5.51a.54.54,0,0,0,.31.28.63.63,0,0,0,.19,0,.56.56,0,0,0,.53-.37L14.5,22.42a.53.53,0,0,0,0-.39A.57.57,0,0,0,14.21,21.71ZM13,23.17,9,34.22l-2.3-4.65,0,0L2,27.23Z" style="fill:#011638"/></g></g><path d="M28.88,9.67H26.47V7.25a.61.61,0,0,0-1.21,0V9.67H22.85a.6.6,0,0,0,0,1.2h2.41v2.41a.61.61,0,0,0,1.21,0V10.87h2.41a.6.6,0,1,0,0-1.2Z" style="fill:#4285f4"/></svg>