<svg id="Layer_1" data-name="Layer 1" xmlns="http://www.w3.org/2000/svg" viewBox="0 0 30.32 34.15"><path d="M27.07,3.84V0l-12,8.61L.14,2.58,0,2.52V28l14.77,6,.42.17.36-.17L30.26,28l.06,0V2.52Zm-.91-2.08V25.17L15.62,32.74V9.33Zm3.26,2.1V27.41l-11,4.45L27,25.66l0,0V4.81ZM14.71,33,.9,27.41V3.86L14.71,9.43Z" style="fill:#011638"/><g id="Line_1195" data-name="Line 1195"><path d="M17.6,13.19a.5.5,0,0,1-.39-.18.51.51,0,0,1,.08-.71l5-4a.5.5,0,0,1,.62.79l-5,4A.5.5,0,0,1,17.6,13.19Z" style="fill:#4285f4"/></g></svg>