<svg id="Layer_1" data-name="Layer 1" xmlns="http://www.w3.org/2000/svg" viewBox="0 0 34 32.52"><g id="Path_207" data-name="Path 207"><path d="M22.9,2.22l.47-.14a6.55,6.55,0,0,1,.88-.31L24.76.28A.33.33,0,0,1,25.12,0h0l2.22.2a.4.4,0,0,1,.36.29L28.09,2a2.18,2.18,0,0,1,.45.16,5.07,5.07,0,0,1,.65.35l1.44-.64A.35.35,0,0,1,31.1,2l1.51,1.85a.35.35,0,0,1,0,.43l-.71,1.19a2.38,2.38,0,0,1,.24.51,4.78,4.78,0,0,1,.23.76l1.33.43a.35.35,0,0,1,.25.41l-.2,2.23a.34.34,0,0,1-.31.35l-1.13.2-.35.86a3.43,3.43,0,0,1-.43.88l.52.92a.36.36,0,0,1-.05.47l-1.51,1.59a.34.34,0,0,1-.48.06h0l-1-.61a3.28,3.28,0,0,1-.79.35,6.3,6.3,0,0,1-1,.3l-.41,1a.37.37,0,0,1-.37.25h0l-1.91-.09a.34.34,0,0,1-.34-.26L23.75,15,23,14.73l-.88-.49L21,14.77a.36.36,0,0,1-.47-.1L19.08,13a.38.38,0,0,1,0-.51l.68-.84-.33-.74A12.27,12.27,0,0,1,19,9.61l-1-.27A.38.38,0,0,1,17.69,9l0-2A.37.37,0,0,1,18,6.58l1.31-.31a2.77,2.77,0,0,1,.22-.63A6.92,6.92,0,0,1,20,4.8l-.69-1.09a.36.36,0,0,1,0-.49l0,0,1.82-1.56a.41.41,0,0,1,.45-.06ZM27,1,25.38.81,24.9,2.22a.36.36,0,0,1-.27.27,4.85,4.85,0,0,0-1,.31L23,3a.33.33,0,0,1-.29,0l-1.19-.61L20.14,3.55l.64,1a.39.39,0,0,1,0,.48,3.55,3.55,0,0,0-.53.9,2.18,2.18,0,0,0-.24.66.36.36,0,0,1-.29.33l-1.23.29V8.65l1,.25a.39.39,0,0,1,.3.3,8.67,8.67,0,0,0,.39,1.41l.43.91a.41.41,0,0,1-.06.43l-.63.79,1,1.16,1-.48a.38.38,0,0,1,.37,0,9.35,9.35,0,0,0,1,.54,5.15,5.15,0,0,0,.86.3.3.3,0,0,1,.25.25l.37,1.06,1.37.06.39-1a.35.35,0,0,1,.28-.24A8.16,8.16,0,0,0,28,14.12a4.56,4.56,0,0,0,.84-.39.38.38,0,0,1,.41,0l.94.57,1.09-1.15-.51-.88a.35.35,0,0,1,0-.43,3.23,3.23,0,0,0,.47-.9l0-.06a4.48,4.48,0,0,0,.37-1A.38.38,0,0,1,32,9.61l1.07-.18.14-1.62L32,7.42a.36.36,0,0,1-.25-.28c-.12-.43-.21-.73-.28-.91a2.88,2.88,0,0,0-.27-.59.39.39,0,0,1,0-.39l.66-1.13L30.69,2.7l-1.39.61a.35.35,0,0,1-.39,0,4.23,4.23,0,0,0-.68-.41,2.59,2.59,0,0,0-.45-.14l-.22-.11a.35.35,0,0,1-.17-.24ZM21.63,16.05l1,3a.4.4,0,0,1-.17.45l-1.47.9a11.06,11.06,0,0,1,0,1.41,9.19,9.19,0,0,1-.09,1.48l1.25,1a.38.38,0,0,1,.11.45L21.1,27.64a.35.35,0,0,1-.41.25l-1.78-.25a11.15,11.15,0,0,1-.9.92,12.07,12.07,0,0,1-1.29,1v1.72a.37.37,0,0,1-.26.37l-2.63.88-.14,0a.33.33,0,0,1-.29-.13l-1.1-1.31L11,31.14c-.36,0-.85-.09-1.46-.2L8.28,32.33a.37.37,0,0,1-.48.07L5.09,30.92a.4.4,0,0,1-.2-.45l.45-1.56a10.43,10.43,0,0,1-.92-1,10.19,10.19,0,0,1-1.19-1.5l-1.66.21a.34.34,0,0,1-.41-.23L.05,23.77a.33.33,0,0,1,.11-.46h0l1.65-1.21a7.71,7.71,0,0,1,0-1A8.94,8.94,0,0,1,2,19.67L.38,18.51a.34.34,0,0,1-.13-.46h0v0l1.58-3a.4.4,0,0,1,.4-.22L4.33,15l.58-.49a13,13,0,0,1,1-.9l-.09-2.35a.33.33,0,0,1,.26-.39h0l3.05-.94a.34.34,0,0,1,.43.14L11,11.91l.7-.06h.08l1.05.18,1.66-1.72a.34.34,0,0,1,.47-.06l3,1.66a.32.32,0,0,1,.2.39l-.31,2,.64.57.74,1,2-.12a.41.41,0,0,1,.41.28Zm-.67.53-1.91.09a.41.41,0,0,1-.35-.15l-.79-1.06-.78-.7a.41.41,0,0,1-.12-.35l.32-1.95-2.5-1.39-1.6,1.66a.41.41,0,0,1-.38.11c-.24-.06-.63-.13-1.15-.21l-.74.08h-.1l-.13,0a.53.53,0,0,1-.28-.16L9.14,10.74l-2.5.78.1,2.23a.38.38,0,0,1-.14.33,14.84,14.84,0,0,0-1.17,1,8.1,8.1,0,0,0-.69.61.33.33,0,0,1-.31.09l-2-.22L1.1,18.08l1.49,1.09a.36.36,0,0,1,.16.39,10.87,10.87,0,0,0-.18,1.61,6,6,0,0,0,.06,1,.34.34,0,0,1-.16.37L.89,23.75l.88,2.09,1.6-.2a.39.39,0,0,1,.37.18A10.38,10.38,0,0,0,5,27.42a9.47,9.47,0,0,0,1,1.06.39.39,0,0,1,.12.41l-.43,1.48,2.17,1.2,1.23-1.31a.35.35,0,0,1,.35-.14,14,14,0,0,0,1.58.24l1.37-.08h0a.41.41,0,0,1,.31.14l1.06,1.27,2.11-.7V29.33a.4.4,0,0,1,.2-.34,7.77,7.77,0,0,0,1.34-1,9.26,9.26,0,0,0,1-1,.4.4,0,0,1,.35-.14l1.68.24.9-2.33-1.19-.95a.38.38,0,0,1-.14-.4,5.66,5.66,0,0,0,.12-1.54,0,0,0,0,1,0,0h0a11.6,11.6,0,0,0,0-1.56.34.34,0,0,1,.18-.37L21.77,19ZM11.39,17a4.34,4.34,0,0,0-3,1.17A4.16,4.16,0,0,0,7,21.19a4.37,4.37,0,0,0,1.21,3.2,4.45,4.45,0,0,0,3.09,1.43,4.27,4.27,0,0,0,3.19-1.21,4.36,4.36,0,0,0,.22-6.16h0l0-.05A4.46,4.46,0,0,0,11.59,17Zm-3.54.59a5.15,5.15,0,0,1,3.77-1.37,5.3,5.3,0,0,1,3.6,1.66,5,5,0,0,1,1.41,3.77A4.89,4.89,0,0,1,15,25.18a5.09,5.09,0,0,1-3.58,1.43h-.18a5.3,5.3,0,0,1-3.61-1.67,5.21,5.21,0,0,1,.19-7.36h0l0,0Z" style="fill:#011638;fill-rule:evenodd"/></g><g id="Ellipse_182" data-name="Ellipse 182"><path d="M25.91,12.27a3.85,3.85,0,1,1,3.84-3.85A3.85,3.85,0,0,1,25.91,12.27Zm0-7.09a3.25,3.25,0,1,0,3.24,3.24A3.25,3.25,0,0,0,25.91,5.18Z" style="fill:#4285f4"/></g></svg>