<svg xmlns="http://www.w3.org/2000/svg" width="898" height="806" viewBox="0 0 449 403"><g><g><g><g><g><g><path fill="#fff" d="M306.686 86.457H416.54V22.936a7.787 7.787 0 0 0-7.788-7.788h-94.279a7.787 7.787 0 0 0-7.787 7.788z"/></g><g><path fill="#72abff" d="M307.175 22.936c0-4.025 3.274-7.299 7.299-7.299h94.279c4.024 0 7.299 3.274 7.299 7.299v63.032H307.175zm109.854 0c0-4.564-3.713-8.276-8.276-8.276h-94.28c-4.563 0-8.276 3.712-8.276 8.276v64.01H417.03z"/></g><g><path fill="#e7e9eb" d="M314.978 82.319h92.814a4.436 4.436 0 0 0 4.43-4.432V23.441a4.436 4.436 0 0 0-4.43-4.431h-92.814a4.436 4.436 0 0 0-4.431 4.43v54.464c0 2.443 1.987 4.415 4.431 4.415z"/></g><g><path fill="#72abff" d="M287.43 101.364c-4.204 2.737-3.227 8.096 1.742 8.096h149.655c4.187 0 5.62-5.653 1.515-8.243z"/></g><g><path fill="#72abff" d="M289.172 108.972c-1.919 0-3.326-.881-3.764-2.356-.407-1.373.112-3.363 2.17-4.764l152.62-.146c2.06 1.367 2.343 3.415 1.95 4.773-.348 1.205-1.403 2.493-3.321 2.493zm-1.888-8.097l-.122.079c-2.232 1.454-3.314 3.84-2.69 5.94.559 1.884 2.36 3.055 4.7 3.055h149.655c2.026 0 3.699-1.255 4.26-3.199.65-2.25-.324-4.584-2.484-5.947l-.12-.075z"/></g><g><path fill="#fff" d="M289.172 105.73h149.655c2.672 0 3.73-3.145 1.515-4.513l-23.835-14.76H306.995l-19.55 14.907c-1.955 1.482-.814 4.366 1.727 4.366z"/></g><g><path fill="#72abff" d="M416.369 86.945l23.716 14.688c.938.579 1.078 1.47.896 2.11-.196.691-.878 1.498-2.154 1.498H289.172c-1.005 0-1.84-.554-2.13-1.412-.259-.772.002-1.548.7-2.077l19.419-14.807zm22.458 19.273c1.476 0 2.72-.887 3.095-2.208.35-1.236-.168-2.496-1.323-3.209l-23.952-14.833H306.83l-19.68 15.006c-1.031.782-1.427 1.996-1.033 3.167.424 1.262 1.623 2.077 3.055 2.077z"/></g><g><g><path fill="#fff" d="M306.442 101.282h115.116c2.053 0 2.867-2.427 1.173-3.47L406.18 86.457h-86.02l-15.037 11.47c-1.515 1.14-.635 3.355 1.32 3.355z"/></g><g><path fill="#72abff" d="M406.027 86.946l16.448 11.282c.561.346.798.902.632 1.49-.141.496-.63 1.075-1.549 1.075H306.442c-.882 0-1.376-.543-1.531-1.008-.183-.545.006-1.093.507-1.47l14.906-11.37zm15.531 14.825c1.186 0 2.186-.719 2.489-1.787.283-1.002-.133-2.018-1.04-2.575L406.33 85.968h-86.336l-15.166 11.567c-.838.631-1.162 1.612-.845 2.56.34 1.018 1.306 1.676 2.459 1.676h115.116z"/></g><g><g><path fill="#72abff" d="M312.894 101.63l-.686-.696 15.053-14.825.686.696z"/></g><g><path fill="#72abff" d="M322.69 101.608l-.729-.652 13.262-14.825.728.652z"/></g><g><path fill="#72abff" d="M331.933 101.582l-.772-.6 11.501-14.825.773.6z"/></g><g><path fill="#72abff" d="M342.072 101.55l-.817-.536 9.726-14.825.818.536z"/></g><g><path fill="#72abff" d="M354.038 101.43l-.93-.297 4.74-14.825.931.298z"/></g></g><g><g><path fill="#72abff" d="M413.9 101.63l-15.053-14.825.685-.697 15.054 14.826z"/></g><g><path fill="#72abff" d="M404.104 101.608l-13.262-14.825.729-.652 13.261 14.825z"/></g><g><path fill="#72abff" d="M394.86 101.582L383.36 86.756l.772-.599 11.502 14.825z"/></g><g><path fill="#72abff" d="M384.721 101.55l-9.726-14.825.817-.536 9.726 14.825z"/></g><g><path fill="#72abff" d="M372.755 101.43l-4.74-14.824.93-.298 4.741 14.825z"/></g></g><g><path fill="#72abff" d="M364.277 101.461h-.978V86.457h.978z"/></g><g><path fill="#72abff" d="M414.243 92.485H312.877v-.978h101.366z"/></g></g></g></g><g><g><path fill="#66b0f0" d="M1.297 393.03l-.936-.283 69.777-230.722c1.435-4.76 5.922-8.085 10.911-8.085l359.087-1.083.003.977-359.089 1.083c-4.563 0-8.664 3.04-9.976 7.39z"/></g><g><path fill="#72abff" d="M448.536 86.946H263.301v-.978h185.236z"/></g></g><g><g><path fill="#ffeeb4" d="M384.25 121.516h-43.76v37.585h43.76v-37.585z"/></g><g><g><g><g><path fill="#8ebcff" d="M220.618 296.146l20.347-50.667h-32.762z"/></g><g><path fill="#8ebcff" d="M276.448 177.853a25.216 25.216 0 0 0-22.287-13.425H228.96l-17.123 13.425z"/></g></g><g><g><g><path fill="#9fc6ff" d="M180.899 237.17h63.488l-23.9 58.015c1.662-2.705 11.616.114 22.157 6.581 10.41 6.387 17.448 14.076 16.014 16.879l51.514-89.637c13.36-22.613-2.932-51.155-29.194-51.155H138.703l-.31.977c-9.285 28.836 12.22 58.34 42.506 58.34z"/></g><g><path fill="#e6e6e6" d="M136.243 194.486a44.056 44.056 0 0 0 3.389 15.151l74.615-31.768h-74.061l-1.727 5.05c-1.206 3.03-1.874 7.282-2.216 11.567z"/></g><g><path fill="#9fc6ff" d="M220.47 295.185c-1.66 2.704 5.605 10.084 16.13 16.552 10.54 6.468 20.331 9.71 21.993 7.005 1.662-2.704-5.425-10.345-15.966-16.813-10.524-6.467-20.478-9.449-22.156-6.744z"/></g><g><g><path fill="#72abff" d="M243.849 302.45a.489.489 0 0 1-.425-.73l46.333-81.913c1.622-2.895 1.589-6.336-.09-9.202a9.153 9.153 0 0 0-7.972-4.568h-90.24a19.537 19.537 0 0 1-15.236-7.262 19.545 19.545 0 0 1-3.96-16.413.488.488 0 1 1 .956.202 18.57 18.57 0 0 0 3.764 15.595 18.563 18.563 0 0 0 14.477 6.9h90.239c3.666 0 6.961 1.889 8.815 5.052 1.857 3.168 1.894 6.972.099 10.175l-46.334 81.916a.488.488 0 0 1-.426.248z"/></g><g><path fill="#72abff" d="M259.13 319.41a.488.488 0 0 1-.415-.745c.197-.32.22-.792.066-1.401-.877-3.494-7.251-10.295-16.4-15.63-12.269-7.147-19.888-9.108-22.033-5.67a.488.488 0 1 1-.83-.517c2.51-4.021 10.367-2.224 23.355 5.343 9.725 5.67 15.943 12.597 16.856 16.236.22.874.159 1.597-.182 2.15a.49.49 0 0 1-.417.234z"/></g><g><path fill="#72abff" d="M219.575 296.553a.487.487 0 0 1-.451-.678l30.27-72.171a.489.489 0 1 1 .901.378l-30.27 72.171a.489.489 0 0 1-.45.3z"/></g><g><path fill="#72abff" d="M282.753 177.804h-73.85v-.978h73.85z"/></g></g></g><g><g><path fill="#f2d7ce" d="M240.982 322.473l4.399-5.996 6.06-8.243c-2.476-2.085-5.458-4.252-8.797-6.305-6.647-4.073-13.05-6.777-17.302-7.526l-2.949 5.88-3.682 7.332c2.607 9.27 22.271 14.858 22.271 14.858z"/></g><g><path fill="#5395f5" d="M222.377 300.284c2.737 3.34 7.885 7.559 14.223 11.453 3.046 1.873 6.027 3.47 8.764 4.74l6.06-8.243c-2.475-2.085-5.457-4.252-8.797-6.305-6.647-4.073-13.05-6.777-17.301-7.526z"/></g></g><g><g><path fill="#fff" d="M198.575 339.921l44.704 32.111c3.796 2.64 9.693 4.838 8.911-4.708-1.091-13.164-4.007-32.746-11.208-44.867-.31-.082-19.664-5.67-22.27-14.858l-20.382 14.483c-5.864 4.561-5.734 13.457.245 17.84z"/></g><g><path fill="#ffcf2d" d="M240.66 322.873c7.447 12.676 10.115 33.297 11.043 44.49.23 2.806-.109 4.722-1.007 5.698-.464.503-1.075.748-1.865.748-1.862 0-4.103-1.365-5.267-2.174l-44.7-32.108a10.595 10.595 0 0 1-4.364-8.462 10.604 10.604 0 0 1 4.114-8.585l19.84-14.098c3.203 8.657 20.174 13.895 22.206 14.49zm-42.63-1.177a11.581 11.581 0 0 0-4.508 9.383 11.566 11.566 0 0 0 4.768 9.24L243 372.433c1.264.879 3.702 2.353 5.83 2.353 1.065 0 1.934-.358 2.585-1.064 1.09-1.184 1.515-3.35 1.262-6.44-.939-11.327-3.653-32.245-11.275-45.076l-.103-.171-.193-.052c-.192-.051-19.378-5.541-21.925-14.519l-.189-.666z"/></g><g><path fill="#ffcf2d" d="M242.54 327.237c-4.934 0-23.538-7.1-26.547-17.696a.489.489 0 0 1 .94-.267c2.95 10.385 22.53 17.612 26.028 16.955a.488.488 0 1 1 .18.96c-.168.032-.37.048-.601.048z"/></g><g><path fill="#ffcf2d" d="M247.857 368.725s-29.178-40.534-49.934-38.253"/></g><g><path fill="#ffcf2d" d="M248.872 374.742c-.072 0-.144-.002-.216-.007a.489.489 0 0 1 .063-.975 2.292 2.292 0 0 0 2.18-1.197c.63-1.193.177-2.923-1.244-4.743-.313-.433-30.46-41.789-51.548-39.469-1.343.144-2.365.707-2.956 1.627-.573.891-.688 2.042-.316 3.158a.488.488 0 1 1-.927.31c-.466-1.399-.312-2.855.42-3.997.528-.82 1.594-1.846 3.673-2.07 9.118-1.003 20.726 5.414 34.497 19.074 10.205 10.122 17.862 20.674 17.938 20.78 2.274 2.912 1.808 4.877 1.326 5.787a3.264 3.264 0 0 1-2.89 1.722z"/></g></g></g></g><g><g><path fill="#e3ffcb" d="M136.08 197.793c10.329-2.443 36.037-8.879 65.362-15.656 13.783-3.177 25.317-12.56 31.264-25.398l26.702-57.77-16.162-25.61a28.99 28.99 0 0 0-22.743-13.474l-15.9-.977c-16.031-.978-28.902 9.025-33.79 24.323l-32.338 94.622c-3.552 8.862-2.395 19.94-2.395 19.94z"/></g><g><path fill="#72abff" d="M204.573 59.395l15.9.978a28.556 28.556 0 0 1 22.36 13.246l16.02 25.386-26.59 57.528c-5.932 12.806-17.206 21.964-30.93 25.128-20.261 4.682-38.446 9.116-51.724 12.354-5.46 1.331-9.92 2.419-13.089 3.172-.171-2.342-.609-11.622 2.418-19.176l32.341-94.631c4.74-14.834 16.686-24.05 31.177-24.05.699 0 1.406.022 2.117.065zm-68.38 138.874c3.194-.756 7.86-1.893 13.647-3.305 13.276-3.236 31.457-7.67 51.712-12.35 14.021-3.232 25.538-12.589 31.597-25.67l26.814-58.012-16.303-25.834a29.535 29.535 0 0 0-23.127-13.7l-15.9-.978a35.761 35.761 0 0 0-2.177-.067c-14.931 0-27.234 9.476-32.104 24.72l-32.33 94.598c-3.556 8.872-2.44 20.061-2.428 20.173l.058.553z"/></g><g><path fill="#72abff" d="M217.547 119.002l-.147-.967c18.932-2.882 27.452-15.955 27.535-16.087l.825.525c-.086.136-8.847 13.58-28.213 16.529z"/></g></g><g><g><g><path fill="#f2d7ce" d="M203.511 58.37l1.092.049 15.9.977a28.794 28.794 0 0 1 11.453 3.145l4.888-14.63-21.782-15.966z"/></g><g><path fill="#eac2b5" d="M232.021 62.313a20.52 20.52 0 0 1-10.198-10.232l-7.918-17.513 1.157-2.64 21.782 15.966z"/></g></g><g><g><path fill="#f2d7ce" d="M213.66 33.411c0 1.515.62 2.884 1.614 3.878a5.467 5.467 0 0 0 3.877 1.613h4.79c1.89 7.347 9.204 12.381 17.073 10.996l3.601-.635c3.942-.7 6.63-4.383 6.076-8.341l-4.22-21.13c-.732-4.513-5.375-7.267-9.692-5.719l-6.99 2.802a9.366 9.366 0 0 0-6.32 8.847v2.036l-4.318.163c-3.03 0-5.49 2.46-5.49 5.49z"/></g><g><g><path fill="#efae99" d="M221.774 34.877a.407.407 0 0 1-.407-.407c0-.908-.352-1.76-.99-2.398a3.368 3.368 0 0 0-2.399-.99.407.407 0 0 1 0-.815 4.192 4.192 0 0 1 3.874 2.565c.219.519.33 1.07.33 1.638a.408.408 0 0 1-.408.407z"/></g><g><path fill="#efae99" d="M238.261 27.92a.407.407 0 0 1-.326-.65 8.822 8.822 0 0 1 2.042-1.984 8.425 8.425 0 0 1 1.998-1.022c1.212-.427 2.113-.432 2.151-.432v.814h.001c-.008 0-.825.009-1.914.398a7.622 7.622 0 0 0-1.79.924 8.016 8.016 0 0 0-1.835 1.79.407.407 0 0 1-.327.163z"/></g><g transform="rotate(-100.3 242.655 30.195)"><path fill="#efae99" d="M240.91 30.19c0-.449.781-.814 1.744-.814s1.743.365 1.743.815c0 .45-.78.814-1.743.814-.963 0-1.743-.364-1.743-.814z"/></g></g></g><g><g><path fill="#525252" d="M217.782 10.456c-1.938-1.32-5.278-3.828-5.538-5.148a.484.484 0 0 1 .048-.342c.44-.619.88-.945 1.336-.945.065 0 .114 0 .163.016 1.613.277 3.226 4.171 3.991 6.42zm5.686 17.4c.7-.033 1.385-.114 2.02-.245 2.966-.602 5.067-2.313 5.214-5.213.081-1.401-.293-3.063-1.238-5.001 1.417.244 3.633.586 6.093.863 3.454.391 7.445.62 10.557.196 3.111-.424 5.376-1.483 5.376-3.682 0-2.395-1.988-3.226-4.823-3.177 2.998-3.16 3.634-7.625-1.547-10.345-2.998-1.58-6.614.081-9.319 2.199-.424-1.483-1.955-2.835-5.213-3.307-9.45-1.385-11.649 7.624-12.105 10.345-.228-.7-.635-1.841-1.157-2.998-1.156-2.541-2.313-3.926-3.437-4.105-.766-.13-1.483.277-2.134 1.205-.163.228-.212.522-.147.848.18.912 1.32 2.183 3.486 3.877.408.31.799.603 1.173.88-5.62-1.988-11.045 2.362-11.045 6.712 0 3.242 5.995 12.821 8.439 16.585v-.082c0-3.03 2.46-5.49 5.49-5.49z"/></g><g><g><path fill="#7c7b7b" d="M235.573 3.94c.147.945-.146 1.987-.83 2.85-.734.93-1.744 1.467-2.721 1.402-.033-.424 1.058-2.363 3.551-4.252zm-3.421 4.92c1.124 0 2.264-.603 3.095-1.662.929-1.173 1.238-2.623.847-3.877a.326.326 0 0 0-.374-.229.244.244 0 0 0-.18.066c-2.46 1.76-4.431 4.268-4.138 5.262.066.26.278.423.554.44h.196z"/></g></g></g></g><g><g><g><path fill="#f2d7ce" d="M264.311 152.714h104.267c2.574 0 4.121-2.834 2.753-5.001l-13.88-21.798a9.807 9.807 0 0 0-8.277-4.545H278.6z"/></g><g><path fill="#acfab8" d="M346.877 121.386L338.57 107.7a2.735 2.735 0 0 0-2.33-1.32c-2.134 0-3.438 2.33-2.33 4.155l6.598 10.85z"/></g><g><path fill="#eac2b5" d="M264.311 152.714h23.444c.05-.048.114-.114.163-.162 5.702-5.865 8.13-14.76 4.92-23.33l-3.34-7.852H278.6z"/></g><g><path fill="#f2d7ce" d="M353.85 138.085h13.066c.88 0 1.695.472 2.134 1.238l1.385 2.411c.929 1.63-.244 3.666-2.134 3.666h-10.508a5.255 5.255 0 0 1-4.48-2.51l-1.124-1.84c-.783-1.303.146-2.965 1.662-2.965z"/></g><g><path fill="#f2d7ce" d="M357.223 145.4h13.065c.88 0 1.695.472 2.135 1.238l1.384 2.411c.929 1.63-.244 3.665-2.134 3.665h-10.508a5.254 5.254 0 0 1-4.48-2.509l-1.124-1.84c-.799-1.304.146-2.965 1.662-2.965z"/></g><g><path fill="#f2d7ce" d="M350.12 130.672h13.065c.88 0 1.694.472 2.134 1.238l1.385 2.411c.929 1.63-.244 3.666-2.134 3.666h-10.508a5.255 5.255 0 0 1-4.48-2.509l-1.125-1.841c-.798-1.303.147-2.965 1.662-2.965z"/></g><g><path fill="#efae99" d="M370.081 141.936c.364.64.36 1.402-.01 2.039a2.017 2.017 0 0 1-1.771 1.018h-10.508a4.857 4.857 0 0 1-4.132-2.315l-1.124-1.84a1.541 1.541 0 0 1-.02-1.567 1.515 1.515 0 0 1 1.334-.779h13.065c.733 0 1.415.396 1.782 1.034l1.384 2.41zm-16.231-4.259c-.434 0-.854.117-1.216.337a2.38 2.38 0 0 0-1.136 2.016c-.003.429.115.854.34 1.23l1.126 1.843h.001a5.67 5.67 0 0 0 4.827 2.703H368.3c.524.001 1.032-.138 1.47-.4a2.877 2.877 0 0 0 1.396-2.402c.01-.51-.12-1.02-.378-1.472l-1.385-2.412a2.868 2.868 0 0 0-2.488-1.443z"/></g><g><path fill="#efae99" d="M373.454 149.251c.364.64.36 1.401-.01 2.039a2.017 2.017 0 0 1-1.771 1.017h-10.508a4.854 4.854 0 0 1-4.133-2.314l-1.124-1.841a1.52 1.52 0 0 1-.031-1.555c.277-.495.78-.79 1.345-.79h13.066a2.06 2.06 0 0 1 1.781 1.034l1.385 2.41zm-16.232-4.259c-.436 0-.86.118-1.225.341a2.376 2.376 0 0 0-1.134 2.022c0 .427.122.85.35 1.222l1.124 1.84v.002a5.692 5.692 0 0 0 2.065 1.983c.842.47 1.797.72 2.763.72h10.508c.523 0 1.031-.139 1.47-.401.413-.247.76-.6 1.005-1.022.245-.421.38-.899.39-1.38a2.847 2.847 0 0 0-.377-1.472l-1.385-2.412a2.867 2.867 0 0 0-2.488-1.442z"/></g><g><path fill="#efae99" d="M366.35 134.523c.365.64.36 1.402-.01 2.039a2.02 2.02 0 0 1-1.77 1.018h-10.508a4.856 4.856 0 0 1-4.133-2.315l-1.124-1.84a1.52 1.52 0 0 1-.031-1.556c.277-.495.78-.79 1.345-.79h13.066a2.06 2.06 0 0 1 1.781 1.034l1.384 2.41zm-16.231-4.258a2.347 2.347 0 0 0-2.056 1.206 2.362 2.362 0 0 0-.303 1.156c0 .427.122.85.35 1.222l1.124 1.841v.001a5.672 5.672 0 0 0 4.827 2.703h10.509a2.86 2.86 0 0 0 1.47-.4c.412-.248.76-.601 1.005-1.023a2.88 2.88 0 0 0 .39-1.38c.011-.51-.12-1.019-.377-1.471l-1.386-2.413a2.867 2.867 0 0 0-2.488-1.442H350.12z"/></g><g><path fill="#f2d7ce" d="M331.205 141.57c3.926 0 7.706-1.416 10.671-4.007l4.953-4.333h4.561l1.174 1.254c2.1 2.248 4.692 3.536 7.77 3.536h2.184c1.14 0 1.84-1.271 1.221-2.232l-5.49-8.602h-27.06v14.385z"/></g><g><path fill="#efae99" d="M331.205 141.978a.407.407 0 0 1 0-.814 15.797 15.797 0 0 0 8.103-2.238 15.866 15.866 0 0 0 2.3-1.67l5.067-4.434h4.892l1.295 1.385c1.028 1.108 2.17 1.958 3.392 2.524.623.29 1.279.51 1.95.656.683.15 1.4.225 2.13.225h2.183c.386 0 .729-.204.916-.547.185-.34.171-.735-.036-1.057l-.001-.002-5.49-8.601a.407.407 0 0 1 .686-.439l5.49 8.601a1.84 1.84 0 0 1 .066 1.888 1.846 1.846 0 0 1-1.63.971h-2.184c-1.567 0-3.055-.321-4.423-.956-1.319-.611-2.545-1.522-3.646-2.708l-1.051-1.125h-4.232l-4.838 4.233a16.692 16.692 0 0 1-7.957 3.837c-.981.18-1.985.271-2.982.271z"/></g></g><g><g><path fill="#f2d7ce" d="M221.204 122.25l24.877 27.793a27.574 27.574 0 0 0 20.56 9.188c15.51 0 26.246-15.477 20.804-30.009l-29.553-69.435 9.987-5.588a4.874 4.874 0 0 0 1.792-4.675l-1.694-11.42c-.521-2.542-3.112-4.53-5.637-5.116l-11.697-2.64c-.994-.228-1.907.62-1.743 1.613l1.694 8.814c.668 4.301-2.232 8.015-6.533 8.749-3.52.602-5.995 4.138-5.67 7.69l7.967 49.689c.016.032-8.146 12.756-25.154 15.346z"/></g><g><path fill="#efae99" d="M249.893 131.845a.407.407 0 0 1-.402-.345l-9.612-62.413a.407.407 0 1 1 .805-.124l9.612 62.413a.407.407 0 0 1-.403.469z"/></g><g><path fill="#efae99" d="M242.986 49.947a.407.407 0 0 1-.081-.806l14.956-3.027c.298-.087.58-.228.836-.42.256-.193.481-.432.668-.71.19-.28.334-.592.43-.926.1-.346.145-.706.134-1.071l-.13-4.04a.407.407 0 0 1 .814-.026l.13 4.041c.014.45-.042.895-.165 1.321-.12.417-.3.806-.537 1.157a3.737 3.737 0 0 1-.855.905c-.34.255-.716.443-1.117.556l-.015.005-.016.003-14.971 3.03a.408.408 0 0 1-.081.008z"/></g><g><path fill="#efae99" d="M232.803 51.25a.407.407 0 0 1-.053-.81l11.965-1.596a7.024 7.024 0 0 0 4.458-2.786 6.986 6.986 0 0 0 1.28-5.09l-1.547-8.839a1.567 1.567 0 0 1 .47-1.42 1.566 1.566 0 0 1 1.442-.382l12.218 2.85a.408.408 0 0 1-.186.794l-12.22-2.852a.745.745 0 0 0-.696.184.747.747 0 0 0-.226.685l1.55 8.86a7.794 7.794 0 0 1-1.427 5.689 7.84 7.84 0 0 1-4.982 3.11l-.018.003-11.974 1.597a.428.428 0 0 1-.054.003z"/></g><g><path fill="#72abff" d="M239.054 142.875l-32.387-36.037.727-.653 32.387 36.037z"/></g><g><path fill="#efae99" d="M257.55 60.21h-5.718a.407.407 0 0 1 0-.814h5.718a.407.407 0 0 1 0 .815z"/></g><g><path fill="#efae99" d="M257.68 44.538h-1.791a1.72 1.72 0 0 1-1.299-.597 2.086 2.086 0 0 1-.51-1.387l-.114-8.502a2.13 2.13 0 0 1 .234-1.007c.147-.287.356-.54.621-.75.611-.487 1.444-.679 2.174-.502a.408.408 0 0 1-.192.792 1.653 1.653 0 0 0-.766.005c-.26.062-.505.18-.708.342-.359.285-.553.68-.548 1.11l.114 8.509c0 .326.108.628.305.85a.915.915 0 0 0 .689.323h1.792c.55 0 1.073-.246 1.47-.692.196-.222.351-.481.46-.77a2.68 2.68 0 0 0 .171-.95V40.01a.407.407 0 1 1 .815 0v1.304c0 1.778-1.308 3.225-2.916 3.225z"/></g><g><path fill="#efae99" d="M251.865 44.538h-1.14a.407.407 0 1 1 0-.814h1.14c.55 0 1.072-.246 1.469-.692.197-.222.352-.481.461-.77.114-.3.171-.62.171-.95V40.01a.407.407 0 0 1 .815 0v1.304c0 1.778-1.308 3.225-2.916 3.225z"/></g></g></g></g><g><g><path fill="#66b0f0" d="M127.752 402.947l-.97-.117 18.914-157.41.97.117z"/></g><g><path fill="#66b0f0" d="M244.217 375l-.001-.001h-.985l-15.556-129.463.97-.115 15.572 129.578z"/></g><g><path fill="#66b0f0" d="M240.59 349.322H133.768v-.978H240.59z"/></g><g><path fill="#fff" d="M239.06 245.968h-102.8a2.476 2.476 0 0 1-2.477-2.477v-3.356a2.476 2.476 0 0 1 2.477-2.476h102.8a2.475 2.475 0 0 1 2.476 2.476v3.356a2.476 2.476 0 0 1-2.476 2.477z"/></g><g><path fill="#66b0f0" d="M239.06 238.148a1.99 1.99 0 0 1 1.987 1.987v3.356a1.99 1.99 0 0 1-1.987 1.988h-102.8a1.99 1.99 0 0 1-1.988-1.988v-3.356a1.99 1.99 0 0 1 1.988-1.987zm0 8.308a2.968 2.968 0 0 0 2.965-2.965v-3.356a2.968 2.968 0 0 0-2.965-2.965h-102.8a2.968 2.968 0 0 0-2.966 2.965v3.356a2.968 2.968 0 0 0 2.966 2.965h102.8z"/></g></g></g></g><g><g><g><g><path fill="#fdfcff" d="M409.047 80.492h-41.8a2.308 2.308 0 0 1-2.308-2.307v-22.38c0-1.281 1.04-2.308 2.308-2.308h41.8c1.28 0 2.307 1.04 2.307 2.307v22.38a2.308 2.308 0 0 1-2.307 2.308z"/></g><g><g><path fill="#ffc4bf" d="M401.151 80.426h-27.315c2.76-3.402 6.975-5.589 11.696-5.589h3.922a15.083 15.083 0 0 1 11.697 5.589z"/></g><g><path fill="#fff" d="M386.64 74.85a4.103 4.103 0 0 1-4.068 3.562 4.11 4.11 0 0 1-3.575-2.081 15.047 15.047 0 0 1 6.523-1.48z"/></g><g><path fill="#fff" d="M394.709 75.784a4.1 4.1 0 0 1-3.828 2.614 4.103 4.103 0 0 1-4.068-3.56h2.654c1.84.012 3.601.333 5.242.946z"/></g><g><path fill="#f2d7ce" d="M391.708 68.902v6.055c0 .947-1.894 1.708-4.215 1.708-.427 0-.84-.027-1.227-.067-1.734-.214-2.987-.867-2.987-1.64v-6.056z"/></g><g><path fill="#eac2b5" d="M391.148 70.142c0 2.628-2.294 5.815-4.882 6.442-1.734-.213-2.987-.867-2.987-1.64v-6.056h7.735z"/></g><g><path fill="#f2d7ce" d="M393.87 68.128v.147c0 1.027-.841 1.867-1.868 1.867h-1.787a5.11 5.11 0 0 1-4.642 2.948h-.347a4.144 4.144 0 0 1-4.148-4.148V64.66c2.654.174 6.029-2.147 6.029-2.147 1.107 4.281 4.268 4.228 5.735 3.948.6.307 1.027.947 1.027 1.667z"/></g><g><g><path fill="#efae99" d="M391.242 68.782a.205.205 0 0 1-.2-.2c0-.854.693-1.547 1.547-1.547.106 0 .2.093.2.2 0 .106-.094.2-.2.2-.627 0-1.147.507-1.147 1.147 0 .106-.094.2-.2.2z"/></g></g><g><path fill="#525252" d="M391.708 70.142h.294c1.027 0 1.867-.84 1.867-1.867v-.147c0-.733-.413-1.36-1.027-1.667-.4.08-.947.133-1.534.093-1.52-.12-3.401-.947-4.201-4.04 0 0-3.375 2.32-6.03 2.146a3.03 3.03 0 0 1-1.373-.386c-2.2-1.254 3.121-7.123 9.23-6.242 4.881.707 4.775 6.548 4.681 7.936.24-.027.48-.04.72-.04 3.575 0 6.47 2.747 6.47 6.148 0 2.214-1.228 4.162-3.082 5.242a14.93 14.93 0 0 0-6.015-2.307z"/></g><g><g><path fill="#efae99" d="M383.772 68.929c-.026 0-.053 0-.066-.014-.107-.04-.16-.16-.12-.253 0-.014.4-1.094-.267-2.254-.573-1-1.84-.827-1.894-.814a.197.197 0 0 1-.227-.173c-.013-.107.053-.214.174-.227.066-.013 1.587-.227 2.307 1.014.76 1.32.307 2.547.294 2.587-.054.08-.12.134-.2.134z"/></g></g><g><g><path fill="#efae99" d="M388.32 66.394a.214.214 0 0 1-.12-.04c-1.16-.893-2.707-.786-2.72-.786-.107.013-.2-.08-.214-.187-.013-.107.08-.2.187-.214.067 0 1.707-.12 2.987.867.094.067.107.187.04.28-.053.054-.106.08-.16.08z"/></g></g><g><path fill="#fff" d="M383.079 69.382s.32 2.108 2.494.053"/></g><g><path fill="#efae99" d="M386.146 66.981c0-.346.126-.627.28-.627.155 0 .28.281.28.627s-.125.627-.28.627c-.154 0-.28-.28-.28-.627z"/></g><g><path fill="#efae99" d="M382.025 66.981c0-.287.108-.52.24-.52.133 0 .24.233.24.52 0 .288-.107.52-.24.52-.132 0-.24-.232-.24-.52z"/></g></g></g><g><g><path fill="#fff" d="M408.528 48.996h-41.8a2.308 2.308 0 0 1-2.308-2.308v-22.38c0-1.28 1.04-2.308 2.307-2.308h41.8c1.28 0 2.308 1.04 2.308 2.307v22.381a2.317 2.317 0 0 1-2.307 2.308z"/></g><g><g><path fill="#ffcf2d" d="M400.018 48.996h-25.515c2.574-3.428 6.509-5.616 10.924-5.616h3.668c4.415 0 8.349 2.188 10.923 5.616z"/></g><g><path fill="#f2d7ce" d="M385.908 47.849h.573a4.525 4.525 0 0 0 4.521-4.522v-3.214c0-.014-.013-.027-.026-.027h-8.39c-.013 0-.027.013-.027.027v4.414a3.345 3.345 0 0 0 3.348 3.321z"/></g><g><path fill="#eac2b5" d="M382.573 40.086v4.508c.12 2.48 6.295 1.507 8.149-4.508z"/></g><g><path fill="#f2d7ce" d="M393.442 38.152c0 .534-.213 1.014-.573 1.374-.347.347-.827.56-1.374.56h-1.827a4.587 4.587 0 0 1-4.295 2.96h-1.427a3.589 3.589 0 0 1-3.588-3.587v-5.602c2.054.174 3.788-1.48 3.855-1.547-.027.093-1.067 3.028 1.294 3.188 2.347.16 3.12-1.534 3.147-1.6 0 .066.014 2.333 1.868 2.453h.973c1.08 0 1.947.734 1.947 1.801z"/></g><g><path fill="#525252" d="M390.695 36.351h-.16c-1.854-.12-1.867-2.374-1.867-2.454-.027.067-.814 1.76-3.148 1.6-2.347-.16-1.32-3.094-1.294-3.187-.066.054-1.8 1.72-3.854 1.547a3.456 3.456 0 0 1-1.374-.413c-3-1.627-1.067-4.975 1.88-5.015 2.348-.027 3.349 1.254 3.349 1.254s.506-2.628 3.387-2.175c2.881.454 2.361 3.002 2.361 3.002s2.414-1.12 3.748.946c1.574 2.428-.787 4.895-3.028 4.895z"/></g><g><g><path fill="#efae99" d="M382.812 38.792h-.053a.199.199 0 0 1-.147-.24c0-.013.32-1.334-.253-2.414-.627-1.147-1.708-.96-1.747-.96-.107.013-.214-.054-.227-.16a.188.188 0 0 1 .16-.227c.013 0 1.414-.254 2.174 1.16.654 1.214.307 2.641.293 2.694-.04.08-.12.147-.2.147z"/></g></g><g><g><path fill="#efae99" d="M383.52 40.34c-.28 0-.534-.04-.72-.094a.2.2 0 1 1 .093-.387c.067.014 1.587.414 2.147-.76.053-.093.16-.147.267-.093.107.053.146.16.094.266-.388.84-1.201 1.067-1.881 1.067z"/></g></g><g><path fill="#efae99" d="M385.173 36.565c0-.346.126-.627.28-.627.155 0 .28.28.28.627 0 .346-.125.627-.28.627-.154 0-.28-.281-.28-.627z"/></g><g><path fill="#efae99" d="M381.065 36.565c0-.287.108-.52.24-.52.133 0 .24.233.24.52 0 .287-.107.52-.24.52-.132 0-.24-.233-.24-.52z"/></g><g><g><path fill="#efae99" d="M390.495 38.886a.205.205 0 0 1-.2-.2c0-.854.694-1.548 1.547-1.548.107 0 .2.094.2.2 0 .107-.093.2-.2.2-.627 0-1.147.507-1.147 1.147 0 .107-.093.2-.2.2z"/></g></g></g></g><g><g><path fill="#fdfcff" d="M355.79 48.996h-41.801a2.308 2.308 0 0 1-2.307-2.308v-22.38c0-1.28 1.04-2.308 2.307-2.308h41.8c1.281 0 2.308 1.04 2.308 2.307v22.381c.013 1.267-1.027 2.308-2.307 2.308z"/></g><g><g><g><path fill="#d3fcff" d="M345.693 48.996h-25.929c2.615-3.908 6.616-6.403 11.097-6.403h3.735c4.481 0 8.47 2.495 11.097 6.403z"/></g><g><g><g><path fill="#ffd1fa" d="M345.693 48.996h-25.929c.08-.12.16-.227.24-.347.014-.027.027-.054.054-.067h25.355c.013.027.026.04.053.067.067.106.147.227.227.347z"/></g></g><g><g><path fill="#ffd1fa" d="M344.6 47.542h-23.742c.12-.147.24-.28.36-.414h23.02c.121.134.241.267.361.414z"/></g></g><g><g><path fill="#ffd1fa" d="M343.132 46.021h-20.807c.16-.146.32-.28.48-.413h19.847c.16.133.32.267.48.413z"/></g></g><g><g><path fill="#ffd1fa" d="M340.891 44.354h-16.338c.24-.147.493-.28.747-.413h14.831c.267.133.507.266.76.413z"/></g></g></g></g><g><g><path fill="#f2d7ce" d="M336.863 37.605v5.962c0 .614-1.894 1.107-4.214 1.107-2.268 0-4.122-.467-4.215-1.067v-6.002z"/></g><g><path fill="#eac2b5" d="M336.81 37.605v.134c0 2.934-3.641 6.295-6.269 6.682-.413.066-1.694-.187-2.094-.827v-6.002h8.363z"/></g></g><g><path fill="#f2d7ce" d="M339.157 35.725v.133c0 1.027-.84 1.867-1.867 1.867h-1.614a4.412 4.412 0 0 1-4.255 3.228h-1.72a3.47 3.47 0 0 1-3.468-3.468v-7.59c3.201.894 8.923.054 8.923.054s-.52 1.868.467 3.895h1.68a1.89 1.89 0 0 1 1.854 1.88z"/></g><g><path fill="#525252" d="M337.223 33.617h-1.52c-1.294-2.187-.56-3.641-.56-3.641s-5.722.827-8.923-.053c-1.454-.4-2.388-1.16-2.04-2.508 1.106-4.321 13.03.28 13.857 1.84.84 1.561-.814 4.362-.814 4.362z"/></g><g><path fill="#525252" d="M335.857 33.35zm0 0a5.376 5.376 0 0 1-.523-1.267 3.86 3.86 0 0 1-.13-1.065c.013-.568.169-.905.177-.923l.239-.457-.516.074c-.024.003-2.447.35-4.981.35-1.587 0-2.877-.134-3.832-.397-.728-.2-1.256-.476-1.57-.82-.332-.366-.425-.812-.283-1.364.071-.279.197-.523.373-.728.17-.196.393-.362.663-.492.524-.254 1.23-.382 2.101-.382.907 0 1.97.137 3.156.41a25.38 25.38 0 0 1 3.242.987c.983.372 1.91.792 2.61 1.185.965.54 1.177.84 1.218.92l.001.001c.387.72.156 1.78-.106 2.544a9.752 9.752 0 0 1-.629 1.424zm1.596.403c.018-.03.43-.734.744-1.644a6.065 6.065 0 0 0 .333-1.493c.045-.585-.042-1.085-.258-1.486-.167-.315-.648-.697-1.428-1.134-.733-.411-1.66-.833-2.682-1.219a25.918 25.918 0 0 0-3.312-1.009c-1.226-.28-2.328-.423-3.275-.423-.952 0-1.736.147-2.333.436-.697.337-1.141.864-1.321 1.568a2.168 2.168 0 0 0-.034 1.03c.07.303.218.58.44.825.2.22.466.417.79.584.292.152.639.284 1.032.392 1.002.275 2.339.415 3.974.415 1.942 0 3.82-.2 4.635-.3a3.45 3.45 0 0 0-.087.672c-.014.395.034.807.14 1.224.132.516.354 1.041.662 1.562l.078.13h1.825z"/></g><g><g><path fill="#efae99" d="M331.301 37.712a.172.172 0 0 1-.133.053.214.214 0 0 1-.147-.067l-.187-.2c-.573.507-1.12.76-1.627.76-.053 0-.107 0-.147-.013-.56-.053-.84-.426-.853-.44-.067-.093-.053-.213.04-.28.093-.067.213-.053.28.04.014.013.2.254.587.294.427.04.92-.187 1.454-.654l-.107-.12a.193.193 0 0 1 .013-.28.193.193 0 0 1 .28.013l.56.614c.08.08.067.2-.013.28z"/></g><g><path fill="#efae99" d="M333.329 33.737a.2.2 0 0 1-.147-.053c-1.174-1.147-2.668-.92-2.681-.92-.107.013-.214-.054-.227-.16-.013-.107.053-.214.16-.227.067-.014 1.707-.28 3.028 1.027.08.08.08.2 0 .28-.027.04-.08.053-.133.053z"/></g><g><path fill="#efae99" d="M328.78 36.538c-.013 0-.04 0-.052-.013-.107-.027-.16-.147-.134-.254 0-.013.413-1.373-.253-2.534-.574-1-1.868-.693-1.881-.68a.2.2 0 1 1-.093-.387c.547-.133 1.747-.133 2.32.88.76 1.32.32 2.788.294 2.855-.04.08-.107.133-.2.133z"/></g><g><path fill="#efae99" d="M327.047 34.457c0-.287.107-.52.24-.52.132 0 .24.233.24.52 0 .288-.108.52-.24.52-.133 0-.24-.232-.24-.52z"/></g><g><path fill="#efae99" d="M331.155 34.457c0-.346.125-.626.28-.626.154 0 .28.28.28.626 0 .347-.126.627-.28.627-.155 0-.28-.28-.28-.627z"/></g><g><path fill="#efae99" d="M336.25 36.405a.205.205 0 0 1-.2-.2c0-.867.706-1.574 1.574-1.574.106 0 .2.093.2.2 0 .107-.094.2-.2.2-.654 0-1.174.52-1.174 1.174 0 .106-.08.2-.2.2z"/></g></g></g></g></g><g><path fill="#fdfcff" d="M355.79 80.492h-41.8a2.308 2.308 0 0 1-2.308-2.307v-22.38c0-1.281 1.04-2.308 2.307-2.308h41.8c1.281 0 2.308 1.04 2.308 2.307v22.38a2.308 2.308 0 0 1-2.307 2.308z"/></g><g><g><g><path fill="#ffeba7" d="M317.318 80.492h35.507l-.638-4.527a7.118 7.118 0 0 0-5.096-5.846l-8.654-1.797h-6.73l-8.655 1.797a7.088 7.088 0 0 0-5.095 5.846z"/></g><g><g><g><path fill="#ffeba7" d="M332.675 73.495l2.562-2.59c.056-.056.056-.147 0-.196-.056-.057-.147-.057-.197 0l-2.351 2.379-3.65-4.134a.142.142 0 0 0-.196-.014.142.142 0 0 0-.014.196z"/></g></g><g><g><path fill="#ffeba7" d="M337.433 73.495l3.847-4.359c.049-.056.049-.147-.014-.196-.056-.05-.148-.05-.197.014l-3.65 4.134-2.35-2.38a.136.136 0 0 0-.197 0 .136.136 0 0 0 0 .197z"/></g></g><g><g><path fill="#ffeba7" d="M335.012 74.246a.33.33 0 1 1 0 .66.33.33 0 0 1 0-.66zm0 .94a.611.611 0 1 0 0-1.222.611.611 0 0 0 0 1.222z"/></g></g><g><g><path fill="#ffeba7" d="M335.012 77.685a.33.33 0 1 1 0 .66.33.33 0 0 1 0-.66zm0 .94a.611.611 0 1 0 0-1.222.611.611 0 0 0 0 1.222z"/></g></g></g></g><g><g><path fill="#d6d5ff" d="M338.48 80.345h11.467l3.06-9.082-11.468-3.285z"/></g><g><path fill="#66b0f0" d="M341.64 68.153l11.188 3.205-2.981 8.847h-11.189zm11.547 3.016l-11.61-3.326-.14-.04-3.137 12.682h11.748z"/></g><g><g><path fill="#f2d7ce" d="M349.351 72.442h.217c.555 0 1.004-.449 1.004-1.003v-3.152a.407.407 0 0 0-.407-.407h-.947a.407.407 0 0 0-.408.407v3.608a.538.538 0 0 0 .541.547z"/></g><g><path fill="#efae99" d="M350.165 68.02c.147 0 .267.12.267.267v3.152a.86.86 0 0 1-.863.863h-.218a.4.4 0 0 1-.4-.404v-3.61c0-.148.12-.268.267-.268zm-.597 4.563a1.137 1.137 0 0 0 1.054-.699c.06-.141.09-.291.09-.445v-3.152a.548.548 0 0 0-.547-.547h-.947a.548.548 0 0 0-.548.547v3.606a.667.667 0 0 0 .411.634.682.682 0 0 0 .27.056h.218z"/></g><g><path fill="#f2d7ce" d="M344.733 72.442h-.217c-.555 0-1.004-.449-1.004-1.003v-3.152c0-.224.182-.407.407-.407h.954c.225 0 .407.183.407.407v3.608a.548.548 0 0 1-.547.547z"/></g><g><path fill="#f2d7ce" d="M347.59 72.807h.505a.707.707 0 0 0 .709-.709v-3.804a.407.407 0 0 0-.408-.407h-.947a.408.408 0 0 0-.407.407v3.966c0 .301.245.547.548.547z"/></g><g><path fill="#f2d7ce" d="M345.82 72.947h.422a.8.8 0 0 0 .8-.8v-3.86a.407.407 0 0 0-.407-.407h-.947a.407.407 0 0 0-.408.407V72.4c0 .302.246.547.54.547z"/></g><g><path fill="#efae99" d="M344.873 68.02c.147 0 .267.12.267.267v3.608a.408.408 0 0 1-.407.407h-.218a.858.858 0 0 1-.61-.253.857.857 0 0 1-.253-.61v-3.152c0-.147.12-.267.267-.267zm-.14 4.563c.379 0 .688-.309.688-.688v-3.608a.548.548 0 0 0-.548-.547h-.954a.548.548 0 0 0-.548.547v3.152a1.14 1.14 0 0 0 .699 1.054c.14.06.29.09.445.09z"/></g><g><path fill="#efae99" d="M348.397 68.027c.147 0 .266.12.266.267v3.804a.565.565 0 0 1-.568.569h-.505a.407.407 0 0 1-.407-.407v-3.966c0-.147.119-.267.266-.267zm-.302 4.92a.844.844 0 0 0 .85-.849v-3.804a.548.548 0 0 0-.548-.547h-.948a.548.548 0 0 0-.547.547v3.966c0 .379.308.687.688.687z"/></g><g><path fill="#efae99" d="M346.635 68.02c.147 0 .267.12.267.267v3.86a.656.656 0 0 1-.66.66h-.421a.406.406 0 0 1-.4-.407v-4.113c0-.147.12-.267.266-.267zm-.393 5.068a.935.935 0 0 0 .665-.276.935.935 0 0 0 .276-.665v-3.86a.548.548 0 0 0-.548-.547h-.948a.548.548 0 0 0-.547.547V72.4a.688.688 0 0 0 .68.688h.422z"/></g></g></g><g><g><g><path fill="#f2d7ce" d="M331.7 64.195v5.124c0 .884 1.508 1.607 3.368 1.607 1.86 0 3.369-.723 3.369-1.607v-5.124z"/></g><g><path fill="#eac2b5" d="M331.7 64.195c0 3.867 2.477 5.019 4.856 4.815h.022a2.057 2.057 0 0 0 1.852-2.05v-2.758h-6.73z"/></g></g><g><path fill="#f2d7ce" d="M330.134 62.876v.26c0 .575.463 1.038 1.039 1.038h.534l-.008.12a2.996 2.996 0 0 0 2.997 2.997h.737a2.996 2.996 0 0 0 2.997-2.997l-.007-.12h.534c.575 0 1.038-.463 1.038-1.038v-.26c0-.576-.463-1.039-1.038-1.039h-.681l-.078-1.27c0-.197-.027-.386-.084-.562-2.007.499-4.358-.793-4.99-1.179-.702.267-1.2.94-1.2 1.734l-.077 1.27h-.681a1.045 1.045 0 0 0-1.032 1.046z"/></g><g><path fill="#525252" d="M331.124 61.837h.73l.077-1.27c0-.793.498-1.467 1.2-1.734.632.38 2.983 1.67 4.99 1.18.057.175.085.364.085.56l.077 1.271h.456s.934-4.52.014-5.348c-.68-.61-6.913.723-7.6 1.67-.387.54-.029 3.671-.029 3.671z"/></g><g><g><g><path fill="#efae99" d="M332.878 61.563a.1.1 0 0 0 .07-.028c.008-.007.464-.379 1.194-.379.056 0 .105-.049.105-.105a.108.108 0 0 0-.105-.105c-.807 0-1.306.407-1.327.428a.109.109 0 0 0-.014.147c.014.028.05.042.077.042z"/></g></g><g><g><path fill="#efae99" d="M335.546 63.74c.014 0 .028 0 .034-.008.057-.021.085-.084.064-.133-.197-.52-.148-1.172.126-1.748.161-.35.393-.604.597-.674.45-.154 1.08.063 1.088.063.056.022.112-.007.133-.063.021-.056-.007-.112-.063-.133-.028-.007-.702-.239-1.221-.063-.26.091-.527.379-.716.786-.295.625-.344 1.34-.134 1.916.007.028.05.056.092.056z"/></g></g><g><g><path fill="#efae99" d="M334.163 64.855c-.007.056.042.105.098.113h.007c.057 0 .098-.043.106-.099a.943.943 0 0 1 .042-.203c.301.147.575.196.8.196.442 0 .709-.182.723-.196.049-.035.056-.099.028-.148-.036-.049-.098-.056-.148-.028-.013.007-.239.162-.603.162-.197 0-.435-.042-.71-.176a.627.627 0 0 1 .085-.112.102.102 0 0 0-.007-.148c-.042-.035-.112-.035-.147.007-.015.022-.253.288-.274.632z"/></g></g><g transform="rotate(-176.433 333.805 62.5)"><path fill="#efae99" d="M333.63 62.5c0-.194.079-.351.176-.351.097 0 .175.157.175.35 0 .194-.078.351-.175.351-.097 0-.176-.157-.176-.35z"/></g><g transform="rotate(-176.433 336.67 62.5)"><path fill="#efae99" d="M336.508 62.5c0-.179.072-.324.162-.324.089 0 .161.145.161.323 0 .179-.072.323-.161.323-.09 0-.162-.144-.162-.323z"/></g><g><path fill="#efae99" d="M338.613 63.213c.056 0 .105-.05.105-.106 0-.308.253-.554.555-.554.056 0 .105-.05.105-.105a.108.108 0 0 0-.105-.106.767.767 0 0 0-.766.765c0 .064.05.106.106.106z"/></g><g><path fill="#efae99" d="M331.552 63.213c.056 0 .105-.05.105-.106a.767.767 0 0 0-.765-.765.108.108 0 0 0-.105.106c0 .056.05.105.105.105.31 0 .555.253.555.554 0 .064.042.106.105.106z"/></g></g></g></g></g></g></g></svg>