<svg xmlns="http://www.w3.org/2000/svg" width="436" height="426" viewBox="0 0 436 426"><g><g><g><path fill="#fff" d="M311.975 44.07l-32.427-31.299 5.424-5.636c7.988-8.298 22.38-7.35 30.678.62 8.298 7.99 9.753 22.38 1.765 30.68z"/></g><g><path fill="#ffcf2d" d="M285.325 7.475c3.51-3.646 8.503-5.655 14.059-5.655 5.961 0 11.767 2.293 15.927 6.29 8.465 8.148 9.283 22.16 1.751 29.984l-5.099 5.283-31.722-30.619zm32.443 31.3c7.895-8.202 7.064-22.861-1.778-31.372C311.648 3.233 305.596.84 299.384.84c-5.824 0-11.068 2.115-14.765 5.956l-5.762 5.988 33.13 31.98z"/></g><g><path fill="#ffcf2d" d="M317.399 38.924a.488.488 0 0 1-.34-.137l-32.443-31.3a.49.49 0 0 1 .68-.705l32.443 31.3a.49.49 0 0 1-.34.842z"/></g><g><path fill="#3fb1b5" d="M380.062 219.353a.488.488 0 0 1-.447-.69l45.502-101.48L336.18 8.918a10.412 10.412 0 0 0-6.972-4.18c-2.81-.401-5.6.328-7.854 2.052l-3.626 2.777a.49.49 0 1 1-.596-.778l3.626-2.777a11.385 11.385 0 0 1 8.59-2.245 11.366 11.366 0 0 1 7.606 4.549l89.304 108.716-.124.277-45.625 101.755a.49.49 0 0 1-.448.29z"/></g><g><path fill="#fff" d="M419.235 117.646a4.999 4.999 0 1 1 9.998 0 4.999 4.999 0 0 1-9.998 0z"/></g><g><path fill="#ffcf2d" d="M419.726 117.647a4.514 4.514 0 0 1 4.509-4.51 4.514 4.514 0 0 1 4.509 4.51 4.514 4.514 0 0 1-4.51 4.508 4.514 4.514 0 0 1-4.508-4.508zm-.98 0a5.495 5.495 0 0 0 5.489 5.488 5.495 5.495 0 0 0 5.489-5.488 5.495 5.495 0 0 0-5.49-5.49 5.495 5.495 0 0 0-5.488 5.49z"/></g><g><path fill="#fff" d="M367.387 207.493h24.356c7.008 0 12.677 5.684 12.677 12.676v.36h-49.726v-.36c.016-6.991 5.685-12.676 12.693-12.676z"/></g><g><path fill="#ffcf2d" d="M355.184 220.04c.086-6.66 5.532-12.057 12.201-12.057h24.357c6.676 0 12.116 5.396 12.186 12.056zm12.202-13.037c-7.253 0-13.167 5.906-13.184 13.167v.85h50.707v-.85c0-7.26-5.907-13.167-13.167-13.167z"/></g><g><path fill="#fff" d="M249.393 183.43H95.2c-5.8 0-10.488-4.688-10.488-10.487V65.094c0-5.799 4.689-10.487 10.488-10.487h154.193c5.8 0 10.487 4.688 10.487 10.487v107.832c.017 5.8-4.688 10.504-10.487 10.504z"/></g><g><path fill="#72abff" d="M249.392 55.097c5.512 0 9.997 4.485 9.997 9.997v107.834a9.91 9.91 0 0 1-2.913 7.073 9.937 9.937 0 0 1-7.084 2.94H95.199c-5.513 0-9.998-4.485-9.998-9.998V65.094c0-5.512 4.485-9.997 9.998-9.997zm7.778 125.596a10.884 10.884 0 0 0 3.2-7.766V65.094c0-6.053-4.925-10.977-10.978-10.977H95.199c-6.053 0-10.978 4.924-10.978 10.977v107.849c0 6.053 4.925 10.978 10.978 10.978h154.193a10.91 10.91 0 0 0 7.778-3.228z"/></g><g><path fill="#66b0f0" fill-opacity=".21" d="M249.49 173.4H96.783c-2.27 0-4.1-1.846-4.1-4.1V66.124c0-2.271 1.847-4.1 4.1-4.1H249.49c2.27 0 4.1 1.845 4.1 4.1v103.16c.017 2.27-1.83 4.116-4.1 4.116z"/></g><g><path fill="#66b0f0" d="M249.49 62.513c1.99 0 3.61 1.62 3.61 3.61v103.164a3.566 3.566 0 0 1-1.044 2.555 3.592 3.592 0 0 1-2.566 1.068H96.783c-1.99 0-3.61-1.62-3.61-3.61V66.123c0-1.99 1.62-3.61 3.61-3.61zm0 111.377a4.564 4.564 0 0 0 3.262-1.358 4.537 4.537 0 0 0 1.328-3.248V66.124c0-2.532-2.059-4.591-4.59-4.591H96.783a4.595 4.595 0 0 0-4.59 4.59V169.3c0 2.531 2.06 4.59 4.59 4.59H249.49z"/></g><g><path fill="#fff" d="M102.256 66.859c.522 0 .948.425.948.947v2.408c-.011.537-.428.957-.948.957h-2.418a.949.949 0 0 1-.947-.947v-2.418c0-.522.425-.947.947-.947zm1.927 3.365v-2.418a1.93 1.93 0 0 0-1.927-1.928h-2.418a1.93 1.93 0 0 0-1.927 1.928v2.418a1.93 1.93 0 0 0 1.927 1.927h2.418c1.059 0 1.906-.842 1.927-1.927z"/></g><g><path fill="#fff" d="M113.25 66.859c.523 0 .948.425.948.947v2.418a.949.949 0 0 1-.948.947h-2.417a.948.948 0 0 1-.948-.947v-2.418c0-.522.425-.947.948-.947zm1.928 3.365v-2.418a1.93 1.93 0 0 0-1.928-1.928h-2.417a1.93 1.93 0 0 0-1.928 1.928v2.418a1.93 1.93 0 0 0 1.928 1.927h2.417a1.93 1.93 0 0 0 1.928-1.927z"/></g><g><path fill="#fff" d="M124.244 66.859c.522 0 .947.425.947.947v2.418a.938.938 0 0 1-.947.947h-2.418a.948.948 0 0 1-.947-.947v-2.418c0-.522.424-.947.947-.947zm1.927 3.365v-2.418a1.93 1.93 0 0 0-1.927-1.928h-2.418a1.93 1.93 0 0 0-1.927 1.928v2.418a1.93 1.93 0 0 0 1.927 1.927h2.418a1.93 1.93 0 0 0 1.927-1.927z"/></g><g><path fill="#fff" d="M204.846 220.202h-59.854l11.745-36.771h36.347z"/></g><g><path fill="#72abff" d="M157.095 183.921h35.631l11.449 35.792h-58.512zm36.347-.98h-37.063l-12.058 37.752h61.196z"/></g><g><path fill="#ededed" d="M149.695 205.484l7.04-22.053h36.348z"/></g><g><path fill="#fff" d="M240.604 67.692a4.448 4.448 0 0 1 4.443 4.443v18.786a4.414 4.414 0 0 1-1.3 3.144 4.415 4.415 0 0 1-3.143 1.3H211.51a4.448 4.448 0 0 1-4.444-4.444V72.135a4.448 4.448 0 0 1 4.444-4.443zm3.836 27.066a5.387 5.387 0 0 0 1.587-3.837V72.135a5.43 5.43 0 0 0-5.423-5.423H211.51a5.43 5.43 0 0 0-5.424 5.423v18.786a5.43 5.43 0 0 0 5.424 5.424h29.094c1.45 0 2.813-.564 3.836-1.587z"/></g><g><path fill="#fff" d="M237.09 74.39h-22.2a.49.49 0 1 1 0-.98h22.2a.49.49 0 1 1 0 .98z"/></g><g><path fill="#fff" d="M237.09 79.454h-22.2a.49.49 0 1 1 0-.98h22.2a.49.49 0 1 1 0 .98z"/></g><g><path fill="#fff" d="M237.09 84.518h-22.2a.49.49 0 1 1 0-.98h22.2a.49.49 0 1 1 0 .98z"/></g><g><path fill="#fff" d="M237.09 89.582h-22.2a.49.49 0 1 1 0-.98h22.2a.49.49 0 1 1 0 .98z"/></g><g><path fill="#ffeba7" d="M248.641 173.4h-115.64l-6.78 9.72c-7.661 10.978-23.85 11.141-31.724.31L53.2 126.631c1.732 2.156 9.654-.245 17.202-5.211 7.661-5.048 12.61-11.402 11.059-13.755l28.637 36.494 8.772-15.486a17.324 17.324 0 0 1 11.027-8.119l29.845-6.322h25.729l28.359 6.257a17.389 17.389 0 0 1 11.483 8.805z"/></g><g><path fill="#72abff" d="M54.7 127.86c.265.037.552.055.86.055 3.507 0 9.58-2.446 15.112-6.086 3.71-2.444 6.941-5.283 9.098-7.992 1.369-1.72 2.18-3.243 2.4-4.473l27.994 35.673 9.129-16.116a16.897 16.897 0 0 1 10.705-7.887l29.744-6.312 25.623-.011 28.356 6.256a16.894 16.894 0 0 1 11.16 8.556l22.947 43.387H132.745l-6.926 9.93c-3.603 5.162-9.28 8.124-15.575 8.124h-.003c-6.14 0-11.734-2.85-15.347-7.822L54.699 127.86zm55.544 64.084c6.62 0 12.59-3.114 16.379-8.544l6.633-9.51h116.199l-23.708-44.826a17.876 17.876 0 0 0-11.812-9.054l-28.464-6.268-25.83.01-29.855 6.325a17.89 17.89 0 0 0-11.342 8.355l-8.412 14.85-28.185-35.92-.795.573c.614.93-.152 2.909-2.049 5.292-2.094 2.63-5.244 5.394-8.87 7.784-5.386 3.543-11.242 5.924-14.572 5.924-.974 0-1.658-.211-1.978-.61l-.779.594 41.297 56.8c3.8 5.228 9.683 8.225 16.14 8.225h.003z"/></g><g><path fill="#72abff" d="M216.901 173.22a.49.49 0 0 1-.437-.268l-8.217-16.221a.49.49 0 1 1 .874-.443l8.217 16.221a.49.49 0 0 1-.437.712z"/></g><g><path fill="#72abff" d="M132.346 174.74a.49.49 0 0 1-.437-.712l8.135-16.058a.49.49 0 0 1 .874.443l-8.135 16.058a.49.49 0 0 1-.437.27z"/></g><g><path fill="#71abff" d="M117.596 154.32a.49.49 0 0 1-.386-.188l-18.64-23.834a.49.49 0 1 1 .773-.604l18.639 23.834a.49.49 0 0 1-.386.792z"/></g><g><path fill="#72abff" d="M182.615 131.117l-7.177-8.732a.49.49 0 1 1 .757-.623l6.545 7.963 14.976-12.714a.49.49 0 0 1 .634.748z"/></g><g><path fill="#71abff" d="M163.99 131.438l-17.262-13.669a.49.49 0 0 1 .61-.768l16.487 13.056 6.362-8.123a.49.49 0 0 1 .771.605z"/></g><g><path fill="#72abff" d="M61.06 135.462c-1.259 0-2.233-.306-2.785-.993a.49.49 0 1 1 .763-.614c1.415 1.759 8.863-.167 16.712-5.378 7.72-5.119 12.244-11.32 10.986-13.24a.49.49 0 0 1 .82-.538c1.764 2.693-3.394 9.376-11.264 14.595-5.205 3.455-11.482 6.168-15.231 6.168z"/></g><g><path fill="#72abff" d="M80.66 117.254a1.357 1.357 0 0 1 2.712 0c0 .748-.608 1.356-1.355 1.356a1.357 1.357 0 0 1-1.356-1.356zm-.98 0a2.339 2.339 0 0 0 2.337 2.336 2.339 2.339 0 0 0 2.336-2.336 2.339 2.339 0 0 0-2.336-2.336 2.339 2.339 0 0 0-2.336 2.336z"/></g><g><path fill="#72abff" d="M171.814 128.853c0-.748.608-1.356 1.356-1.356.748 0 1.356.608 1.356 1.356 0 .747-.608 1.356-1.356 1.356a1.357 1.357 0 0 1-1.356-1.356zm-.98 0a2.339 2.339 0 0 0 2.336 2.336 2.339 2.339 0 0 0 2.336-2.336 2.339 2.339 0 0 0-2.336-2.336 2.339 2.339 0 0 0-2.336 2.336z"/></g><g><path fill="#72abff" d="M171.814 143.718c0-.747.608-1.356 1.356-1.356.748 0 1.356.609 1.356 1.356 0 .748-.608 1.356-1.356 1.356a1.357 1.357 0 0 1-1.356-1.356zm-.98 0a2.339 2.339 0 0 0 2.336 2.336 2.339 2.339 0 0 0 2.336-2.336 2.339 2.339 0 0 0-2.336-2.336 2.339 2.339 0 0 0-2.336 2.336z"/></g><g><path fill="#5395f5" d="M125.632 183.905L133 173.4v10.504z"/></g><g><path fill="#dec367" d="M70.222 120.93c-7.547 4.966-15.47 7.367-17.201 5.21-.033-.032-.05-.065-.082-.113-.36-.54-.327-1.275 0-2.173 1.127-2.957 5.783-7.53 11.696-11.419 4.705-3.104 9.344-5.26 12.562-5.93 1.863-.375 3.251-.261 3.92.458l.164.196c1.536 2.352-3.398 8.723-11.059 13.77z"/></g><g><path fill="#f2d7ce" d="M70.223 120.93c-4.297 2.826-8.724 4.835-12.056 5.62l-14.915-21.041c-2.074-2.94-1.388-7.008 1.569-9.083l13.428-9.442-7.613-12.954a3.937 3.937 0 0 1 1.421-5.407c.621-.36 1.29-.523 1.96-.523a3.93 3.93 0 0 1 3.317 1.813l23.8 37.017.164.261c1.52 2.32-3.414 8.69-11.075 13.739z"/></g><g><path fill="#efae99" d="M62.468 105.746c-.213 0-.427-.021-.64-.066a3.07 3.07 0 0 1-1.965-1.342l-7.854-11.756a.49.49 0 1 1 .815-.545L60.68 103.8c.312.48.789.805 1.346.922.56.116 1.129.007 1.603-.307l1.848-1.21a2.13 2.13 0 0 0 .639-2.921l-8.313-12.886a.49.49 0 1 1 .823-.532l8.315 12.89a3.114 3.114 0 0 1-.93 4.27l-1.843 1.208a3.07 3.07 0 0 1-1.7.513z"/></g><g><path fill="#efae99" d="M56.377 109.655a3.114 3.114 0 0 1-2.606-1.394.49.49 0 1 1 .82-.538 2.139 2.139 0 0 0 2.921.623l1.684-1.063c.48-.307.813-.789.934-1.354a2.129 2.129 0 0 0-.299-1.622.49.49 0 1 1 .82-.536 3.1 3.1 0 0 1 .438 2.364 3.1 3.1 0 0 1-1.367 1.976l-1.686 1.063a3.085 3.085 0 0 1-1.659.481z"/></g><g><path fill="#efae99" d="M50.39 113.321c-.973 0-1.94-.46-2.554-1.32l-4.46-6.29a.49.49 0 0 1 .799-.567l4.46 6.29a2.133 2.133 0 0 0 2.88.572l1.596-.882c.467-.291.804-.768.927-1.327a2.129 2.129 0 0 0-.3-1.635l-7.69-11.43a.49.49 0 1 1 .813-.547l7.694 11.435c.468.716.623 1.562.44 2.388a3.076 3.076 0 0 1-1.388 1.961l-1.59.879c-.5.32-1.064.473-1.627.473z"/></g><g><path fill="#f2d7ce" d="M75.58 98.305l-3.904-6.06a4.254 4.254 0 0 0-5.962-1.226l-9.688 6.567s2.81 5.048 9.638 1.046l2.287 3.643c-4.672 2.957-6.011 9.18-2.973 13.803z"/></g><g><path fill="#efae99" d="M64.98 116.569a.49.49 0 0 1-.41-.221 10.32 10.32 0 0 1-1.474-7.904 10.298 10.298 0 0 1 4.188-6.313l-1.785-2.842c-2.345 1.283-4.489 1.673-6.38 1.157-2.403-.656-3.476-2.541-3.52-2.621l-.215-.387 9.543-6.657a4.704 4.704 0 0 1 3.615-.722 4.71 4.71 0 0 1 3.04 2.084l3.905 6.06a.49.49 0 1 1-.824.53l-3.905-6.06a3.737 3.737 0 0 0-2.413-1.654 3.73 3.73 0 0 0-2.862.57l-8.775 6.12c.398.51 1.275 1.416 2.686 1.796 1.734.466 3.76.03 6.023-1.296l.41-.24 2.8 4.459-.413.26a9.33 9.33 0 0 0-4.16 5.963 9.346 9.346 0 0 0 1.335 7.158.49.49 0 0 1-.41.76z"/></g><g><path fill="#eac2b5" d="M70.222 120.93c-4.297 2.826-8.724 4.835-12.056 5.62l-3.708-5.228c2.074-2.712 5.783-5.979 10.177-8.87 4.705-3.104 9.344-5.26 12.562-5.93 1.862-.376 3.251-.262 3.92.457l.164.196c.016.033.033.05.049.082.016.016.016.033.033.065.016.033.032.05.049.082 1.11 2.5-3.774 8.625-11.19 13.526z"/></g><g><path fill="#f2d7ce" d="M185.455 99.856v14.36c0 4.165-5.783 7.53-12.89 7.53-7.122 0-12.888-3.365-12.888-7.53v-14.36z"/></g><g><path fill="#eac2b5" d="M163.45 119.541c-2.335-1.356-3.79-3.25-3.79-5.325v-14.36h25.795v3.986c0 4.133-2.515 7.842-6.338 9.393z"/></g><g><path fill="#f2d7ce" d="M192.642 99.007v.245a4.49 4.49 0 0 1-4.492 4.493h-2.957a9.238 9.238 0 0 1-8.968 7.008h-7.319a9.201 9.201 0 0 1-8.951-7.008h-2.957a4.49 4.49 0 0 1-4.493-4.493v-.245a4.49 4.49 0 0 1 4.493-4.492h2.679V90.97a7.52 7.52 0 0 1 6.436-7.45c.8 1.34 3.218 4.542 8.151 4.363 2.32-.082 4.476-.523 6.257-1.046 2.14-.62 4.28.686 4.82 2.728.08.458.13.915.13 1.389v3.545h2.679c2.466 0 4.492 2.025 4.492 4.508z"/></g><g><path fill="#525252" d="M187.513 94.498h-2.058v-3.937c0-.343-.05-.686-.131-.996-.54-2.042-2.679-3.349-4.82-2.728-1.78.523-3.92.964-6.255 1.045-4.934.18-7.352-3.022-8.152-4.361a7.52 7.52 0 0 0-6.437 7.449v3.545h-2.564s-2.94-10.635-.735-13.64c2.173-2.957 4.786-1.667 4.786-1.667s-1.568-8.854 7.188-8.69c8.74.163 20.11 10.307 20.942 12.17 1.307 2.858-1.764 11.81-1.764 11.81z"/></g><g><path fill="#efae99" d="M186.45 100.249a.409.409 0 0 1-.408-.408 3.538 3.538 0 0 1 1.048-2.522 3.559 3.559 0 0 1 2.514-1.04.409.409 0 1 1 0 .817 2.747 2.747 0 0 0-2.744 2.745.409.409 0 0 1-.41.408z"/></g><g><path fill="#efae99" d="M158.713 100.249a.409.409 0 0 1-.409-.408 2.747 2.747 0 0 0-2.744-2.745.409.409 0 0 1 0-.817 3.548 3.548 0 0 1 2.514 1.04 3.539 3.539 0 0 1 1.047 2.522.408.408 0 0 1-.408.408z"/></g><g><path fill="#efae99" d="M181.098 91.3c-.005-.004-.555-.397-1.432-.642a5.255 5.255 0 0 0-1.544-.196 5.305 5.305 0 0 0-1.903.412.408.408 0 1 1-.313-.755 6.11 6.11 0 0 1 2.22-.474 6.068 6.068 0 0 1 1.795.236c1.009.289 1.633.74 1.659.76l-.483.659z"/></g><g><path fill="#efae99" d="M163.63 91.378a.409.409 0 0 1-.242-.738c.027-.019.651-.47 1.659-.759a6.072 6.072 0 0 1 1.796-.236 6.108 6.108 0 0 1 2.22.474.408.408 0 1 1-.313.755 5.294 5.294 0 0 0-1.924-.412 5.256 5.256 0 0 0-1.554.204c-.87.249-1.396.63-1.4.633a.408.408 0 0 1-.242.08z"/></g><g><g><path fill="#efae99" d="M173.6 105.137c-.688 0-1.433-.147-2.222-.438a.408.408 0 1 1 .283-.766c.823.304 1.58.43 2.25.374a3.061 3.061 0 0 0 1.393-.449c.675-.424.956-.998.958-1.004a.409.409 0 0 1 .74.344c-.014.032-.375.794-1.263 1.352a3.871 3.871 0 0 1-1.76.571c-.125.01-.252.016-.38.016z"/></g><g><path fill="#efae99" d="M172.44 102.059c-.381 0-.782-.008-1.126-.03a.408.408 0 0 1 .053-.816c.964.064 2.457 0 2.472 0a.409.409 0 0 1 .035.816c-.042.002-.7.03-1.434.03z"/></g></g><g><path fill="#efae99" d="M177.892 96.41c0-.758.365-1.372.816-1.372.451 0 .817.614.817 1.372 0 .758-.366 1.372-.817 1.372-.45 0-.816-.614-.816-1.372z"/></g><g><path fill="#efae99" d="M166.179 96.41c0-.758.365-1.372.816-1.372.452 0 .817.614.817 1.372 0 .758-.365 1.372-.817 1.372-.45 0-.816-.614-.816-1.372z"/></g><g><path fill="#fff" d="M168.939 92.701a1.38 1.38 0 0 1 1.388 1.389v5.152c.006.359-.132.7-.39.963-.267.27-.62.42-.998.42h-5.146a1.38 1.38 0 0 1-1.388-1.39V94.09a1.38 1.38 0 0 1 1.388-1.389zm0 8.74a2.212 2.212 0 0 0 2.044-1.362c.111-.27.165-.555.161-.847V94.09a2.19 2.19 0 0 0-.644-1.561 2.192 2.192 0 0 0-1.561-.644h-5.146c-.591 0-1.145.228-1.56.644-.416.416-.645.97-.645 1.56v5.147c0 .59.229 1.145.644 1.56.416.416.97.645 1.561.645h5.146z"/></g><g><path fill="#fff" d="M181.534 92.701a1.38 1.38 0 0 1 1.389 1.389v5.146c0 .367-.144.714-.406.978-.264.264-.612.41-.983.41h-5.146A1.381 1.381 0 0 1 175 99.236V94.09a1.381 1.381 0 0 1 1.388-1.389zm0 8.74c.59 0 1.144-.231 1.562-.652a2.208 2.208 0 0 0 .643-1.553V94.09c0-.591-.229-1.145-.644-1.561a2.192 2.192 0 0 0-1.561-.644h-5.146c-.59 0-1.145.228-1.56.644-.416.416-.645.97-.645 1.56v5.147c0 .59.229 1.145.644 1.56.416.416.97.645 1.561.645z"/></g><g><path fill="#fff" d="M174.59 96.1h-3.838v-.817h3.839z"/></g><g><path fill="#72abff" d="M434.685 221.02H1.02a.49.49 0 1 1 0-.98h433.665a.49.49 0 1 1 0 .98z"/></g><g><path fill="#fff" d="M127.642 223.387v201.681h-11.386V386.68a6.49 6.49 0 0 0-6.485-6.486h-81.5a6.49 6.49 0 0 0-6.485 6.486v38.388H10.4v-201.68z"/></g><g><path fill="#72abff" d="M127.153 424.578h-10.406V386.68a6.983 6.983 0 0 0-6.975-6.975h-81.5a6.983 6.983 0 0 0-6.975 6.975v37.9H10.891V223.876h116.262zm-117.242.98h12.366V386.68a6.002 6.002 0 0 1 5.995-5.995h81.5a6.002 6.002 0 0 1 5.995 5.995v38.88h12.366V222.896H9.91z"/></g><g><path fill="#ededed" d="M127.986 223.387v53.516L10.401 373.725l.016-150.338z"/></g><g><path fill="#72abff" d="M27.946 280.972a5.659 5.659 0 0 1-5.652-5.653v-36.575a5.659 5.659 0 0 1 5.652-5.653h82.169a5.659 5.659 0 0 1 5.652 5.653v36.575a5.659 5.659 0 0 1-5.652 5.653zm-6.633-42.228v36.575a6.64 6.64 0 0 0 6.633 6.633h82.169a6.64 6.64 0 0 0 6.632-6.633v-36.575a6.64 6.64 0 0 0-6.632-6.633h-82.17a6.64 6.64 0 0 0-6.632 6.633z"/></g><g><path fill="#66b0f0" d="M89.923 309.167H49.476l-1.683-11.583h40.464z"/></g><g><path fill="#fff" d="M111.501 290.903a9.126 9.126 0 0 0-9.131 9.131v9.132H67.95v-9.132a9.126 9.126 0 0 1 9.132-9.13z"/></g><g><path fill="#72abff" d="M101.88 300.035v8.642H68.44v-8.642c0-4.765 3.878-8.642 8.643-8.642h30.19c-3.191 1.568-5.393 4.853-5.393 8.642zm-34.42 0v9.621h35.4v-9.62c0-4.766 3.877-8.643 8.642-8.643v-.98h-34.42c-5.305 0-9.621 4.317-9.621 9.622z"/></g><g><path fill="#fff" d="M120.079 297.584h-34.42a9.129 9.129 0 0 0-8.804-6.68h34.419c4.198 0 7.727 2.825 8.805 6.68z"/></g><g><path fill="#72abff" d="M81.085 291.393h30.19a8.685 8.685 0 0 1 8.132 5.701H86.025a9.607 9.607 0 0 0-4.94-5.7zm39.466 6.06a9.665 9.665 0 0 0-9.277-7.04h-34.42v.98c3.882 0 7.308 2.6 8.333 6.322l.1.36h35.438z"/></g><g><path fill="#72abff" d="M27.946 357.537a5.659 5.659 0 0 1-5.652-5.653V315.31a5.659 5.659 0 0 1 5.652-5.653h82.169a5.659 5.659 0 0 1 5.652 5.653v36.575a5.659 5.659 0 0 1-5.652 5.653zm-6.633-42.228v36.575a6.64 6.64 0 0 0 6.633 6.633h82.169a6.64 6.64 0 0 0 6.632-6.633V315.31a6.64 6.64 0 0 0-6.632-6.633h-82.17a6.64 6.64 0 0 0-6.632 6.633z"/></g><g><path fill="#72abff" d="M85.872 256.793a.49.49 0 0 1-.49-.49 4.792 4.792 0 0 0-4.787-4.786H57.48a4.792 4.792 0 0 0-4.786 4.786.49.49 0 0 1-.98 0 5.773 5.773 0 0 1 5.766-5.766h23.115a5.773 5.773 0 0 1 5.767 5.766c0 .27-.22.49-.49.49z"/></g><g><path fill="#72abff" d="M85.872 333.36a.49.49 0 0 1-.49-.49 4.792 4.792 0 0 0-4.787-4.786H57.48a4.792 4.792 0 0 0-4.786 4.786.49.49 0 1 1-.98 0 5.773 5.773 0 0 1 5.766-5.767h23.115a5.773 5.773 0 0 1 5.767 5.767c0 .27-.22.49-.49.49z"/></g><g><path fill="#fff" d="M392.281 425.51V223.388h12.138V425.51z"/></g><g><path fill="#3fb1b5" d="M403.93 425.02h-11.158V223.878h11.157zm-12.138.98h13.118V222.898h-13.118z"/></g><g><path fill="#fff" d="M44.869 192.807h-7.335s-10.471-43.633-19.668-45.054c-9.197-1.421-9.67 15.372-9.67 15.372s.162-25.533 23.147-22.037c23 3.496 13.526 51.719 13.526 51.719z"/></g><g><path fill="#72abff" d="M17.942 147.269c-1.94-.3-3.515.15-4.79 1.045 3.217-4.692 7.926-7.065 14.049-7.065 1.29 0 2.659.11 4.07.323 3.964.603 7.195 2.645 9.603 6.068 8.97 12.752 4.252 40.997 3.588 44.677H37.92c-1.116-4.568-10.922-43.649-19.978-45.048zm27.409 45.633c.254-1.296 6.122-31.896-3.675-45.825-2.568-3.651-6.02-5.83-10.259-6.473a28.2 28.2 0 0 0-4.216-.335c-10.583 0-15.422 6.925-17.634 13.152-1.03 2.645-1.493 5.557-1.7 7.496a24.508 24.508 0 0 0-.161 2.205l.98.017c.004-.15.51-14.981 8.103-14.981.321 0 .655.026 1.003.08 7.017 1.084 15.67 29.702 19.266 44.683l.09.376h8.125z"/></g><g><path fill="#72abff" d="M41.65 192.644a.49.49 0 0 1-.49-.482c-.533-32.488-7.415-43.97-13.093-47.88-4.31-2.967-8-1.679-8.155-1.623a.49.49 0 0 1-.338-.92c.173-.063 4.284-1.525 9.017 1.715 5.882 4.026 13.008 15.742 13.549 48.692a.49.49 0 0 1-.482.498h-.008z"/></g><g><path fill="#f2c11d" d="M30.396 220.203v-28.049h34.452v28.049z"/></g><g><path fill="#fff" d="M72.1 206.186c-2.188.947-4.802.833-7.236-.229-1.797-.784-3.496-2.074-4.868-3.839-1.895-2.45-3.17-5.799-3.17-9.964 0-10.096-8.037-16.434-11.337-3.072-.228.932-.44 1.944-.62 3.072v-.098c0-.033 0-.082.016-.131v-.066c.066-.833.31-3.3 1.062-6.272.555-2.206 1.389-4.656 2.63-6.927.62-1.127 1.34-2.205 2.189-3.169 2.19-2.516 5.195-4.28 9.295-4.28 7.547 0 13.069 8.887 15.176 17.74 1.846 7.695 1.095 15.39-3.137 17.235z"/></g><g><path fill="#71abff" d="M50.993 180.992c-1.017 0-2.62.477-4.08 2.954.574-1.86 1.275-3.553 2.093-5.05.66-1.197 1.356-2.205 2.13-3.083 2.373-2.728 5.376-4.112 8.925-4.112 7.3 0 12.642 8.722 14.7 17.365 1.972 8.222.797 15.077-2.855 16.67a7.548 7.548 0 0 1-3.018.605c-1.256 0-2.58-.288-3.828-.833-1.79-.78-3.407-2.056-4.677-3.69-2.006-2.594-3.067-5.936-3.067-9.664 0-6.05-2.895-11.162-6.323-11.162zm17.895 26.329c1.21 0 2.357-.23 3.408-.685 4.807-2.098 5.18-10.45 3.418-17.797-2.147-9.018-7.82-18.118-15.653-18.118-3.845 0-7.097 1.497-9.663 4.446-.82.93-1.556 1.996-2.251 3.258-1.11 2.03-2.01 4.399-2.675 7.042-.755 2.987-1.004 5.439-1.052 6.303-.042.125-.042.233-.042.384l.975.077a36.97 36.97 0 0 1 .612-3.03c1.134-4.594 2.967-7.229 5.028-7.229 2.527 0 5.343 4.182 5.343 10.182 0 3.947 1.132 7.497 3.273 10.265 1.37 1.763 3.12 3.142 5.059 3.988 1.37.598 2.83.914 4.22.914z"/></g><g><path fill="#72abff" d="M70.352 206.986a.49.49 0 0 1-.487-.438c-2.38-22.372-7.809-29.301-11.944-31.175-3.685-1.669-6.728.427-6.856.517a.49.49 0 0 1-.567-.799c.145-.103 3.608-2.51 7.81-.618 6.364 2.865 10.58 13.622 12.532 31.971a.49.49 0 0 1-.488.542z"/></g><g><path fill="#5395f5" d="M7.705 163.125c0 2.696-.31 13.003 9.524 13.477 9.834.474 10.814-14.375 10.814-14.375s-4.835-13.134-10.177-14.474c-9.034-2.27-10.16 15.372-10.16 15.372z"/></g><g><path fill="#72abff" d="M56.827 192.154H44.869"/></g><g opacity=".4"><path fill="#fff" d="M72.1 206.676c-2.172.98-4.802.833-7.236-.23v13.756H39.429l20.583-17.757 4.869-4.199 3.708-3.201 7.171-6.094c2.09 8.92.931 15.617-3.66 17.725z"/></g></g></g></svg>