<?xml version="1.0" encoding="utf-8"?>
<!-- Generator: Adobe Illustrator 16.0.0, SVG Export Plug-In . SVG Version: 6.00 Build 0)  -->
<!DOCTYPE svg PUBLIC "-//W3C//DTD SVG 1.1//EN" "http://www.w3.org/Graphics/SVG/1.1/DTD/svg11.dtd">
<svg version="1.1" id="Capa_1" xmlns="http://www.w3.org/2000/svg" xmlns:xlink="http://www.w3.org/1999/xlink" x="0px" y="0px"
	 width="612.001px" height="592.488px" viewBox="0 99.756 612.001 592.488" enable-background="new 0 99.756 612.001 592.488"
	 xml:space="preserve">
<g>
	<path d="M604.333,388.833c11.095-12.201,10.023-30.902-2.392-41.758L328.431,107.751
		c-12.415-10.856-32.319-10.629-44.472,0.513L9.518,359.834c-12.153,11.142-12.75,29.818-1.321,41.699l6.881,7.166
		c11.415,11.88,29.866,13.296,41.186,3.153l20.51-18.367V662.39c0,16.499,13.368,29.854,29.854,29.854h106.978
		c16.486,0,29.854-13.355,29.854-29.854V474.266h136.451V662.39c-0.237,16.486,11.559,29.843,28.045,29.843h113.37
		c16.486,0,29.854-13.356,29.854-29.854V397.271c0,0,5.666,4.964,12.654,11.106c6.977,6.13,21.629,1.215,32.723-10.998
		L604.333,388.833z"/>
</g>
</svg>
