<svg id="Layer_1" data-name="Layer 1" xmlns="http://www.w3.org/2000/svg" viewBox="0 0 365.93 365.93"><path d="M183,0A183,183,0,0,0,10.46,121.88h345A183,183,0,0,0,183,0Z" style="fill:#ff9533"/><path d="M10.49,244.12a183,183,0,0,0,345,0Z" style="fill:#008900"/><path d="M365.93,183a182.55,182.55,0,0,0-10.46-61.09h-345a183.55,183.55,0,0,0,0,122.24h345A182.61,182.61,0,0,0,365.93,183Z" style="fill:#fff"/><path d="M183,128.11a54.86,54.86,0,1,0,54.89,54.82A54.86,54.86,0,0,0,183,128.11m0,5.32L181.54,161l1.5,15.69L184.43,161,183,133.43a41.56,41.56,0,0,1,4.23.22c0,.08-.07.08-.07.15a2.36,2.36,0,0,0,2.26,2.41,2.29,2.29,0,0,0,2.23-2.05,39.69,39.69,0,0,1,4.05,1l-8.47,26.28-2.7,15.55,5.48-14.89,5.84-26.94c1.31.44,2.63.81,3.94,1.32a2.69,2.69,0,0,0-.18.8,2.28,2.28,0,0,0,2.3,2.26,2.33,2.33,0,0,0,2.08-1.38c1.24.58,2.44,1.24,3.69,2l-15,23.07-6.64,14.45,9.16-12.92,12.59-24.53c1.14.66,2.3,1.39,3.47,2.12a2.26,2.26,0,0,0-.51,1.46,2.28,2.28,0,0,0,2.3,2.26,2,2,0,0,0,1.79-1c1.09,1,2.12,1.9,3.06,2.85l-20.44,18.47-10.11,12.19,12.16-10.08L218,148c1,1,1.9,2,2.78,3.07a2.2,2.2,0,0,0-.8,1.75,2.26,2.26,0,0,0,2.22,2.26,2.09,2.09,0,0,0,1.35-.44,38,38,0,0,1,2.23,3.51l-24.53,12.55-12.92,9.2,14.34-6.57,23.18-15.11c.77,1.31,1.39,2.7,2,3.87a2.51,2.51,0,0,0-1.39,2.19,2.26,2.26,0,0,0,2.23,2.26,1.58,1.58,0,0,0,.87-.22c.44,1.32.84,2.56,1.17,3.87l-27,5.7L189,181.32l15.55-2.63,26.27-8.39c.33,1.17.66,2.63.92,3.94a2.2,2.2,0,0,0-2,2.26,2.3,2.3,0,0,0,2.3,2.27h.22a39.73,39.73,0,0,1,.14,4.08l-27.52-1.31-15.77,1.39,15.77,1.53L232.46,183a39.84,39.84,0,0,1-.14,4.16h-.22a2.36,2.36,0,0,0-2.3,2.27,2.32,2.32,0,0,0,1.93,2.26c-.25,1.39-.55,2.7-.88,4l-9.37-3-16.9-5.47L189,184.61h0l14.78,5.47,27,5.77a25.74,25.74,0,0,1-1.24,3.87c-.07,0-.22-.07-.29-.07h-.51a2.24,2.24,0,0,0-2.3,2.26,1.74,1.74,0,0,0,.22.88h0a1.71,1.71,0,0,0,.62.87h0c.07,0,.11.07.18.07h0c.07.08.15.15.22.15h0s.11.07.15.15c-.59,1.24-1.25,2.48-1.94,3.65l-23.14-15h0l-14.34-6.57h.07L196,191.4l5.33,3.79h0l24.53,12.56c-.73,1.24-1.46,2.48-2.26,3.58a2.64,2.64,0,0,0-1.32-.37,2.19,2.19,0,0,0-2.26,2.19,2,2,0,0,0,.84,1.75c-.91,1-1.83,2-2.78,3l-18.5-20.44-12.12-10.08,10.07,12.19L217.93,218a27.85,27.85,0,0,1-3,2.7,2.16,2.16,0,0,0-1.42-.51,2.33,2.33,0,0,0-2.27,2.26,2.72,2.72,0,0,0,.18,1c-1.2.73-2.44,1.53-3.65,2.33l-12.59-24.53-9.16-13h0l6.61,14.38,15,23.22c-1.21.65-2.41,1.31-3.65,1.89a2.13,2.13,0,0,0-2.05-1.38,2.33,2.33,0,0,0-2.3,2.26,4,4,0,0,0,.15.88,38.65,38.65,0,0,1-3.94,1.16l-5.84-27-5.48-14.67V189l2.7,15.55,8.47,26.28a26.63,26.63,0,0,1-4.05.87,2.33,2.33,0,0,0-2.23-1.89A2.21,2.21,0,0,0,187.2,232v.29a41.4,41.4,0,0,1-4.16.22L184.43,205,183,189.21,181.54,205l1.39,27.53a42.17,42.17,0,0,1-4.23-.22V232a2.27,2.27,0,0,0-2.3-2.19,2.33,2.33,0,0,0-2.23,1.89,35.78,35.78,0,0,1-3.94-.87l8.47-26.28,2.62-15.48-5.47,14.67-5.77,27c-1.31-.29-2.63-.73-4-1.16a2.58,2.58,0,0,0,.19-.88,2.32,2.32,0,0,0-2.23-2.26,2.42,2.42,0,0,0-2.15,1.38c-1.21-.58-2.45-1.24-3.65-1.89l15-23.22,6.57-14.38-9.13,12.92-12.55,24.6c-1.21-.8-2.41-1.53-3.54-2.33a1.91,1.91,0,0,0,.43-1.24,2.28,2.28,0,0,0-2.22-2.34,2.11,2.11,0,0,0-1.75.88A37.5,37.5,0,0,1,148,218l20.51-18.47,10.08-12.19h0l-12.16,10.08-18.5,20.44c-1-1-1.94-2.05-2.85-3a2.42,2.42,0,0,0,.88-1.82,2.22,2.22,0,0,0-2.27-2.19,2.76,2.76,0,0,0-1.35.36,33.08,33.08,0,0,1-2.22-3.5l24.6-12.63,12.81-9-14.35,6.57-23.14,15c-.69-1.17-1.24-2.34-1.86-3.65a2.14,2.14,0,0,0,1.46-2.05,2.28,2.28,0,0,0-2.3-2.33,2.07,2.07,0,0,0-1,.22c-.44-1.25-.87-2.63-1.28-4l27-5.77L177,184.61l-15.62,2.63-26.28,8.46c-.37-1.31-.62-2.62-.91-4.08a2.19,2.19,0,0,0,2-2.19,2.28,2.28,0,0,0-2.27-2.27h-.25c-.07-1.31-.19-2.7-.19-4.16L161,184.46l15.74-1.53L161,181.54l-27.56,1.31c0-1.31.12-2.77.19-4.08h.4a2.23,2.23,0,0,0,2.26-2.27,2.27,2.27,0,0,0-2.11-2.26c.29-1.31.54-2.77.91-3.94l26.28,8.39L177,181.32l-14.86-5.47-27-5.77c.41-1.39.84-2.7,1.28-3.94a3.28,3.28,0,0,0,.84.14A2.25,2.25,0,0,0,139.5,164a2.18,2.18,0,0,0-1.36-2c.59-1.32,1.21-2.56,1.9-3.8l23.14,15.11,14.42,6.57-12.88-9.2-24.6-12.55c.69-1.17,1.46-2.34,2.26-3.58a1.81,1.81,0,0,0,1.35.51,2.3,2.3,0,0,0,2.26-2.26,2.82,2.82,0,0,0-.84-1.83c.84-1,1.76-2,2.74-3l18.51,20.51,12.19,10.08-10.08-12.19L148,147.89c1-.95,2-1.9,3.07-2.78a2.14,2.14,0,0,0,1.75.88,2.3,2.3,0,0,0,2.3-2.34,2.67,2.67,0,0,0-.48-1.38c1.17-.66,2.3-1.46,3.51-2.12l12.55,24.53,9.13,12.85-6.57-14.38-15-23.07c1.2-.73,2.41-1.39,3.61-2a2.31,2.31,0,0,0,2.12,1.46,2.24,2.24,0,0,0,2.26-2.19,3,3,0,0,0-.15-.95c1.28-.51,2.67-.88,4-1.32l5.84,26.94,5.48,14.89-2.67-15.55-8.46-26.28a36.63,36.63,0,0,1,4-1,2.28,2.28,0,0,0,4.53-.36v-.22a37.46,37.46,0,0,1,4.12-.15" style="fill:#130080"/><path d="M183,174.75a8.22,8.22,0,1,1-8.25,8.18,8.22,8.22,0,0,1,8.25-8.18" style="fill:#fff"/><path d="M183,176.65a6.28,6.28,0,0,1,6.31,6.28,6.37,6.37,0,1,1-6.31-6.28" style="fill:#130080"/></svg>