<svg xmlns="http://www.w3.org/2000/svg" width="24" height="40" viewBox="0 0 24 40"><defs><clipPath id="jzx2a"><path fill="#fff" d="M12 40C5.373 40 0 34.627 0 28V12C0 5.373 5.373 0 12 0s12 5.373 12 12v16c0 6.627-5.373 12-12 12z"/></clipPath></defs><g><g><g><path fill="none" stroke="#72abff" stroke-miterlimit="20" stroke-width="2" d="M12 40C5.373 40 0 34.627 0 28V12C0 5.373 5.373 0 12 0h0c6.627 0 12 5.373 12 12v16c0 6.627-5.373 12-12 12z" clip-path="url(&quot;#jzx2a&quot;)"/></g><g transform="rotate(-90 12 20)"><path fill="#72abff" d="M9.248 15.95a.422.422 0 0 0-.263.112l-3.793 3.371a.421.421 0 0 0 0 .632l3.793 3.37a.424.424 0 1 0 .566-.631L6.588 20.17h11.528a.421.421 0 1 0 0-.842H6.588l2.963-2.634a.421.421 0 0 0-.303-.744z"/><path fill="none" stroke="#72abff" stroke-miterlimit="20" stroke-width=".25" d="M9.248 15.95a.422.422 0 0 0-.263.112l-3.793 3.371a.421.421 0 0 0 0 .632l3.793 3.37a.424.424 0 1 0 .566-.631L6.588 20.17v0h11.528a.421.421 0 1 0 0-.842H6.588v0l2.963-2.634a.421.421 0 0 0-.303-.744z"/></g></g></g></svg>